<svg xmlns="http://www.w3.org/2000/svg" xmlns:xlink="http://www.w3.org/1999/xlink" width="1000" zoomAndPan="magnify" viewBox="0 0 750 562.499983" height="750" preserveAspectRatio="xMidYMid meet" version="1.0"><defs><clipPath id="e03845fcff"><path d="M 183.789062 94 L 565 94 L 565 467.878906 L 183.789062 467.878906 Z M 183.789062 94 " clip-rule="nonzero"/></clipPath></defs><path fill="#b24dd7" d="M 382.996094 389.726562 C 383.554688 389.414062 384.152344 389.261719 384.789062 389.269531 C 385.390625 389.265625 385.957031 389.398438 386.492188 389.671875 C 386.8125 389.363281 387.183594 389.144531 387.609375 389.023438 C 388.039062 388.898438 388.46875 388.886719 388.902344 388.980469 C 389.214844 389.070312 389.496094 389.21875 389.75 389.417969 C 390.003906 389.621094 390.210938 389.859375 390.371094 390.140625 C 390.53125 390.421875 390.632812 390.726562 390.671875 391.046875 C 390.714844 391.367188 390.695312 391.683594 390.617188 391.996094 C 390.167969 393.945312 388.398438 395.375 387.0625 396.75 C 385.785156 398.0625 384.496094 399.367188 383.199219 400.65625 C 382.683594 401.167969 382.148438 401.65625 381.625 402.160156 C 380.304688 404.457031 378.578125 406.390625 376.453125 407.96875 C 376.359375 408.363281 376.171875 408.710938 375.890625 409.003906 C 373.914062 410.984375 372.011719 413.039062 370.1875 415.164062 C 369.253906 416.253906 368.34375 417.363281 367.453125 418.488281 C 367.246094 418.746094 367.042969 419.003906 366.839844 419.265625 L 366.726562 419.414062 C 366.613281 419.558594 366.503906 419.703125 366.394531 419.847656 C 365.96875 420.402344 365.546875 420.964844 365.132812 421.527344 C 364.984375 421.753906 364.804688 421.949219 364.589844 422.121094 C 364.378906 422.289062 364.148438 422.421875 363.894531 422.515625 C 363.640625 422.609375 363.378906 422.664062 363.105469 422.671875 C 362.835938 422.683594 362.570312 422.652344 362.308594 422.578125 C 361.789062 422.863281 361.230469 423.011719 360.636719 423.023438 L 350.078125 423.023438 C 350.066406 423.023438 350.058594 423.019531 350.046875 423.019531 C 349.898438 423.042969 349.75 423.058594 349.597656 423.0625 C 314.671875 423.078125 279.746094 422.847656 244.820312 422.363281 C 244.597656 422.355469 244.375 422.332031 244.15625 422.289062 C 243.289062 422.324219 242.421875 422.394531 241.554688 422.410156 C 238.109375 422.476562 234.667969 422.390625 231.226562 422.285156 C 231.078125 422.351562 230.921875 422.390625 230.757812 422.398438 L 220.160156 422.800781 C 216.996094 422.921875 213.476562 423.523438 210.488281 422.253906 C 210.425781 422.214844 210.371094 422.171875 210.320312 422.117188 C 209.875 422.136719 209.429688 422.144531 208.984375 422.164062 C 207.589844 422.21875 207.433594 420.320312 208.496094 419.828125 C 208.59375 419.65625 208.722656 419.507812 208.882812 419.386719 C 210.042969 418.519531 210.796875 417.152344 211.769531 416.09375 C 212.308594 415.503906 212.902344 414.972656 213.496094 414.4375 C 214.109375 413.527344 214.8125 412.695312 215.605469 411.9375 C 217.121094 410.480469 218.542969 408.9375 219.871094 407.3125 C 222.175781 404.429688 224.304688 401.390625 226.933594 398.800781 C 228.230469 397.199219 229.527344 395.597656 230.828125 393.996094 C 231.882812 392.671875 233.058594 391.464844 234.355469 390.371094 C 234.605469 390.070312 234.898438 389.8125 235.226562 389.601562 L 235.234375 389.59375 L 235.242188 389.589844 C 235.820312 389.207031 236.453125 389.027344 237.148438 389.046875 L 240.253906 389.210938 C 240.441406 389.179688 240.632812 389.160156 240.824219 389.15625 C 263.75 389.214844 286.695312 388.996094 309.617188 389.359375 C 309.980469 389.371094 310.332031 389.425781 310.675781 389.535156 C 315.425781 389.21875 320.179688 389.152344 324.933594 389.324219 C 327.507812 389.355469 330.078125 389.386719 332.648438 389.417969 C 349.382812 388.386719 366.285156 389.1875 382.996094 389.726562 Z M 381.214844 418.4375 C 380.8125 418.636719 380.488281 418.929688 380.246094 419.308594 C 380.234375 419.335938 380.230469 419.375 380.21875 419.398438 C 378.546875 421.164062 380.96875 424.238281 383.152344 423.117188 C 383.375 423.183594 383.605469 423.21875 383.835938 423.21875 C 387.15625 423.050781 390.480469 422.972656 393.804688 422.867188 C 393.839844 422.867188 393.859375 422.886719 393.894531 422.886719 C 407.296875 423.40625 420.695312 423.3125 434.097656 422.613281 C 434.195312 422.722656 434.304688 422.816406 434.425781 422.902344 C 435.019531 423.25 435.648438 423.332031 436.316406 423.148438 C 436.953125 422.96875 437.441406 422.59375 437.78125 422.023438 C 437.816406 421.953125 437.863281 421.890625 437.902344 421.820312 C 437.917969 421.804688 437.9375 421.800781 437.953125 421.789062 C 442.484375 416.59375 447.117188 411.464844 451.566406 406.1875 C 455.949219 402.15625 459.90625 397.742188 463.433594 392.941406 C 463.59375 392.660156 463.695312 392.355469 463.738281 392.035156 C 463.78125 391.714844 463.761719 391.394531 463.679688 391.082031 C 463.597656 390.769531 463.457031 390.480469 463.261719 390.222656 C 463.066406 389.960938 462.832031 389.75 462.550781 389.585938 C 462.226562 389.394531 461.878906 389.289062 461.5 389.273438 C 461.125 389.253906 460.765625 389.328125 460.425781 389.488281 C 460.277344 389.441406 460.128906 389.414062 459.972656 389.402344 C 454.402344 389.679688 448.828125 389.832031 443.25 389.898438 C 443.171875 389.875 443.09375 389.855469 443.011719 389.84375 C 433.84375 389.621094 424.675781 389.703125 415.507812 389.96875 C 415.265625 389.964844 415.023438 389.957031 414.78125 389.953125 C 414.757812 389.949219 414.738281 389.941406 414.710938 389.941406 C 413.667969 389.824219 412.621094 389.816406 411.574219 389.925781 C 411.113281 389.925781 410.652344 389.914062 410.191406 389.914062 C 409.617188 389.882812 409.042969 389.832031 408.46875 389.804688 C 408.398438 389.8125 408.328125 389.824219 408.261719 389.84375 C 407.863281 389.722656 407.46875 389.722656 407.074219 389.847656 C 406.675781 389.96875 406.351562 390.195312 406.097656 390.523438 C 398.777344 398.949219 391.457031 407.375 384.140625 415.800781 C 383.207031 416.71875 382.214844 417.582031 381.214844 418.4375 Z M 370.53125 351.46875 C 370.382812 356.375 370.078125 361.277344 369.457031 366.152344 C 369.113281 368.863281 372.007812 370.058594 374.203125 369.582031 C 374.359375 369.660156 374.511719 369.746094 374.679688 369.8125 C 376.039062 370.304688 377.421875 370.378906 378.828125 370.042969 C 380.390625 369.769531 381.539062 368 381.53125 366.496094 C 381.496094 361.324219 381.464844 356.148438 381.429688 350.976562 C 381.730469 346.917969 381.890625 342.851562 381.890625 338.769531 C 381.871094 338.148438 381.691406 337.578125 381.351562 337.058594 C 381.339844 336.664062 381.265625 336.285156 381.132812 335.917969 C 381 335.550781 380.8125 335.214844 380.570312 334.90625 C 380.332031 334.597656 380.046875 334.332031 379.722656 334.117188 C 379.398438 333.898438 379.046875 333.734375 378.671875 333.628906 C 377.402344 333.363281 376.148438 333.410156 374.902344 333.769531 L 374.40625 333.679688 C 373.691406 333.496094 372.980469 333.523438 372.277344 333.761719 C 371.578125 334 370.996094 334.414062 370.539062 334.996094 C 369.738281 336.070312 369.371094 337.90625 370.253906 339.082031 C 370.628906 339.554688 370.78125 340.09375 370.710938 340.695312 C 370.730469 341.875 370.691406 343.058594 370.679688 344.242188 C 370.648438 346.652344 370.605469 349.058594 370.53125 351.46875 Z M 511.828125 104.714844 C 512.496094 104.699219 513.164062 104.660156 513.828125 104.589844 C 514.582031 104.707031 515.335938 104.828125 516.085938 104.960938 C 516.222656 105.046875 516.355469 105.136719 516.492188 105.214844 C 516.507812 105.226562 516.527344 105.238281 516.542969 105.25 C 516.578125 105.277344 516.613281 105.304688 516.648438 105.335938 C 516.964844 105.601562 517.265625 105.886719 517.566406 106.171875 C 518.070312 106.65625 518.578125 107.140625 519.082031 107.625 C 519.238281 108.101562 519.410156 108.570312 519.597656 109.035156 C 519.46875 109.335938 519.40625 109.648438 519.417969 109.976562 C 520.164062 130.121094 520.273438 150.273438 519.753906 170.433594 C 519.765625 170.621094 519.796875 170.808594 519.851562 170.988281 C 519.433594 178.242188 519.449219 185.492188 519.898438 192.746094 C 519.929688 193.164062 520.054688 193.550781 520.28125 193.902344 C 520.054688 201.121094 519.828125 208.339844 519.601562 215.558594 C 519.585938 216.015625 519.699219 216.4375 519.941406 216.824219 C 519.75 233.105469 519.800781 249.386719 520.09375 265.664062 C 519.941406 265.980469 519.867188 266.3125 519.878906 266.660156 C 519.953125 268.84375 519.964844 271.03125 520.011719 273.214844 C 519.902344 276.945312 519.773438 280.675781 519.625 284.410156 C 519.597656 284.933594 519.746094 285.398438 520.070312 285.8125 C 519.960938 292.386719 519.855469 298.960938 519.746094 305.53125 C 519.75 305.800781 519.796875 306.058594 519.890625 306.3125 C 519.816406 309.707031 519.757812 313.105469 519.660156 316.5 C 519.640625 317.03125 519.789062 317.507812 520.113281 317.925781 C 520.046875 320.125 519.996094 322.320312 520.011719 324.519531 L 520.011719 327.019531 C 519.785156 327.410156 519.785156 327.796875 520.007812 328.1875 C 520.039062 328.226562 520.070312 328.261719 520.105469 328.292969 C 520.210938 328.527344 520.375 328.710938 520.59375 328.84375 C 520.8125 328.972656 521.050781 329.03125 521.308594 329.011719 C 521.5625 328.996094 521.792969 328.90625 521.992188 328.746094 C 522.195312 328.585938 522.332031 328.386719 522.40625 328.140625 C 523.984375 327.074219 525.578125 326.027344 527.132812 324.921875 C 528.378906 324.152344 529.3125 323.101562 529.941406 321.777344 C 530.5 321.097656 530.800781 320.316406 530.84375 319.4375 C 531.132812 315.539062 530.980469 311.554688 531.019531 307.648438 C 531.082031 300.875 531.054688 294.101562 530.992188 287.328125 C 531.011719 287.230469 531.054688 287.144531 531.0625 287.046875 C 531.542969 281.210938 531.523438 275.378906 531.003906 269.546875 C 531.023438 269.460938 531.039062 269.378906 531.050781 269.292969 C 530.976562 265.476562 530.90625 261.664062 530.832031 257.847656 C 530.863281 257.746094 530.886719 257.644531 530.90625 257.539062 C 531.253906 248.453125 531.210938 239.363281 530.859375 230.285156 C 530.894531 230.175781 530.925781 230.0625 530.949219 229.949219 C 531.605469 219.597656 531.679688 209.242188 531.175781 198.882812 C 531.179688 198.835938 531.207031 198.804688 531.210938 198.757812 C 531.828125 188.804688 531.664062 178.863281 530.71875 168.933594 C 530.878906 165.511719 530.882812 162.089844 530.722656 158.664062 C 530.726562 157.875 530.75 157.089844 530.753906 156.304688 C 531.113281 155.886719 531.296875 155.398438 531.300781 154.84375 C 531.46875 146.914062 531.480469 138.980469 531.335938 131.046875 C 531.265625 127.1875 531.179688 123.324219 531 119.46875 C 530.972656 118.804688 530.917969 118.160156 530.847656 117.527344 C 530.894531 115.046875 530.941406 112.5625 530.988281 110.082031 C 531.058594 106.40625 531.484375 102.539062 530.625 98.929688 C 530.558594 98.671875 530.453125 98.433594 530.304688 98.214844 C 530.1875 97.398438 529.773438 96.777344 529.070312 96.351562 C 528.855469 95.96875 528.558594 95.664062 528.179688 95.441406 C 527.796875 95.214844 527.386719 95.105469 526.949219 95.101562 C 523.597656 95.230469 520.230469 95.429688 516.867188 95.433594 C 504.65625 94.8125 492.445312 94.816406 480.234375 95.441406 C 469.382812 94.710938 458.523438 94.554688 447.652344 94.964844 C 447.449219 94.988281 447.25 95.035156 447.058594 95.109375 C 444.929688 94.71875 442.78125 94.578125 440.617188 94.691406 C 437.523438 94.769531 434.429688 94.859375 431.332031 94.941406 L 415.425781 95.371094 C 410.191406 95.1875 404.953125 95.078125 399.710938 95.117188 C 397.222656 95.136719 394.738281 95.207031 392.253906 95.277344 C 391.683594 95.265625 391.113281 95.273438 390.550781 95.3125 C 390.226562 95.324219 389.898438 95.324219 389.574219 95.335938 C 388.292969 95.378906 386.644531 95.25 385.085938 95.382812 C 370.179688 94.824219 355.273438 94.828125 340.359375 95.394531 C 334.160156 95.261719 327.964844 95.125 321.765625 94.992188 C 321.753906 94.988281 321.746094 94.996094 321.738281 94.996094 C 321.304688 94.820312 320.859375 94.785156 320.40625 94.886719 C 319.789062 95.023438 319.175781 95.125 318.558594 95.214844 C 318.308594 95.214844 318.054688 95.210938 317.800781 95.214844 C 317.496094 95.214844 317.199219 95.273438 316.917969 95.390625 C 312.71875 95.726562 308.5 95.175781 304.273438 94.972656 C 298.894531 94.714844 293.554688 95.476562 288.183594 95.640625 C 287.921875 95.539062 287.652344 95.472656 287.375 95.445312 C 282.675781 95.046875 277.96875 94.773438 273.257812 94.625 C 270.1875 94.53125 266.554688 94.0625 263.582031 95.183594 C 255.414062 94.75 247.242188 94.558594 239.0625 94.617188 C 238.566406 94.621094 238.121094 94.769531 237.726562 95.0625 C 228.734375 94.789062 219.71875 95.480469 210.71875 94.898438 C 210.28125 94.898438 209.875 95.003906 209.496094 95.222656 C 209.117188 95.4375 208.820312 95.738281 208.601562 96.113281 C 208.53125 96.230469 208.460938 96.347656 208.390625 96.464844 C 207.578125 96.742188 206.835938 97.148438 206.164062 97.675781 C 205.46875 98.257812 204.839844 98.902344 204.277344 99.609375 C 203.703125 100.03125 203.128906 100.453125 202.550781 100.875 C 201.992188 101.226562 201.476562 101.636719 201.011719 102.105469 C 200.679688 102.429688 200.476562 102.824219 200.402344 103.28125 C 200.332031 103.742188 200.402344 104.179688 200.621094 104.589844 C 200.859375 104.996094 201.210938 105.199219 201.679688 105.195312 C 202.308594 105.160156 202.929688 105.0625 203.554688 104.976562 C 203.863281 105.09375 204.179688 105.148438 204.511719 105.136719 C 215.5 104.734375 226.496094 104.628906 237.496094 104.820312 C 241.996094 104.902344 246.492188 105.066406 250.984375 105.25 C 251.167969 105.207031 251.351562 105.175781 251.539062 105.164062 C 255.066406 104.886719 258.589844 104.898438 262.109375 105.199219 C 262.347656 105.082031 262.566406 104.9375 262.765625 104.765625 L 290.195312 104.996094 C 295.066406 105.035156 299.933594 105.078125 304.804688 105.117188 C 309.769531 105.160156 314.9375 105.613281 319.886719 105.222656 C 320.347656 105.179688 320.800781 105.089844 321.242188 104.949219 C 323.417969 105.035156 325.605469 104.976562 327.785156 104.914062 C 327.804688 104.917969 327.820312 104.925781 327.839844 104.929688 C 332.585938 105.140625 337.328125 105.148438 342.074219 104.953125 C 342.382812 105.085938 342.703125 105.15625 343.039062 105.160156 C 356.683594 105.304688 370.328125 105.128906 383.964844 104.699219 C 391.832031 105.179688 399.699219 105.171875 407.566406 104.679688 C 408.878906 104.789062 410.195312 104.828125 411.511719 104.796875 C 414.546875 104.746094 417.578125 104.660156 420.609375 104.585938 C 420.859375 104.570312 421.101562 104.519531 421.335938 104.429688 C 428.007812 104.445312 434.683594 104.464844 441.355469 104.480469 C 443.851562 105.132812 446.53125 104.832031 449.113281 104.796875 C 452.648438 104.75 456.183594 104.742188 459.714844 104.773438 C 467.054688 104.839844 474.390625 105.078125 481.71875 105.488281 C 482.386719 105.554688 482.953125 105.347656 483.421875 104.871094 C 484.066406 104.898438 484.710938 104.886719 485.304688 104.894531 C 488.078125 104.917969 490.855469 104.9375 493.628906 104.960938 C 499.277344 105.007812 504.921875 105.054688 510.566406 105.101562 C 511.027344 105.101562 511.449219 104.972656 511.828125 104.714844 Z M 562.273438 407.214844 C 562.253906 407.113281 562.21875 407.019531 562.171875 406.929688 C 562.125 406.664062 561.996094 406.445312 561.785156 406.277344 C 561.578125 406.109375 561.339844 406.03125 561.070312 406.039062 C 560.90625 406.039062 560.75 406.070312 560.597656 406.136719 C 560.332031 406.191406 560.113281 406.328125 559.941406 406.539062 C 559.773438 406.75 559.6875 406.988281 559.683594 407.261719 C 559.464844 413.65625 558.246094 419.855469 556.027344 425.859375 C 554.28125 429.050781 553.632812 432.707031 551.5 435.691406 C 549.472656 438.523438 547.203125 441.207031 545.003906 443.921875 C 544.234375 444.617188 543.460938 445.316406 542.6875 446.011719 C 541.378906 447.160156 540.136719 448.378906 538.960938 449.667969 C 538.179688 450.550781 537.394531 451.425781 536.566406 452.257812 C 534.324219 454.332031 531.863281 456.097656 529.183594 457.554688 C 526.5 459.011719 523.679688 460.113281 520.722656 460.867188 C 520.628906 460.90625 520.539062 460.949219 520.453125 461.003906 C 517.902344 461.414062 515.347656 461.472656 512.78125 461.179688 C 512.351562 461.136719 511.953125 461.234375 511.589844 461.472656 C 510.5625 461.265625 509.535156 461.046875 508.523438 460.761719 C 506.023438 460.132812 503.933594 458.839844 502.257812 456.878906 C 502.109375 456.675781 501.910156 456.542969 501.664062 456.492188 C 501.417969 456.4375 501.183594 456.476562 500.964844 456.601562 C 500.722656 456.527344 500.484375 456.523438 500.242188 456.597656 C 500 456.667969 499.800781 456.804688 499.644531 457 C 499.488281 457.195312 499.398438 457.417969 499.378906 457.671875 C 499.363281 457.921875 499.417969 458.15625 499.542969 458.371094 C 499.71875 458.738281 499.921875 459.085938 500.160156 459.414062 C 500.0625 459.816406 500.167969 460.15625 500.476562 460.433594 C 501.480469 461.222656 502.542969 461.921875 503.667969 462.519531 C 504.078125 462.855469 504.449219 463.230469 504.878906 463.535156 C 505.484375 463.984375 506.144531 464.328125 506.863281 464.5625 C 507.941406 465.222656 509.09375 465.699219 510.320312 465.988281 C 512.695312 466.609375 515.105469 466.9375 517.558594 466.96875 C 517.957031 466.984375 518.265625 466.820312 518.484375 466.484375 C 525.296875 466.625 531.25 464.308594 536.546875 460.71875 C 537.355469 460.226562 538.121094 459.675781 538.839844 459.0625 C 539.1875 458.945312 539.496094 458.769531 539.773438 458.53125 C 543.34375 455.398438 547.082031 452.382812 550.460938 449.039062 C 553.15625 446.519531 555.089844 443.507812 556.257812 440.011719 C 557.183594 438.753906 557.992188 437.425781 558.683594 436.027344 C 559.511719 434.382812 560.171875 432.667969 560.667969 430.894531 C 564.46875 423.515625 563.429688 415.128906 562.273438 407.214844 Z M 491.917969 385.765625 C 491.890625 385.589844 491.816406 385.4375 491.699219 385.308594 C 491.902344 384.207031 490.550781 383.105469 489.707031 384.148438 C 484.042969 391.179688 478.433594 398.265625 472.652344 405.203125 C 472.308594 405.195312 472.027344 405.324219 471.808594 405.589844 C 467.65625 410.222656 463.503906 414.855469 459.351562 419.488281 C 457.304688 421.769531 455.257812 424.054688 453.210938 426.335938 C 451.632812 428.097656 449.488281 429.921875 448.570312 432.179688 C 441.832031 432.21875 435.09375 432.257812 428.355469 432.292969 C 421.65625 431.804688 414.953125 431.671875 408.238281 431.890625 C 401.230469 432 394.21875 432.113281 387.207031 432.222656 L 387.140625 432.214844 L 385.886719 432.09375 C 385.515625 431.859375 385.113281 431.738281 384.675781 431.730469 C 383.695312 431.714844 382.71875 431.699219 381.738281 431.683594 C 381.472656 431.65625 381.210938 431.632812 380.949219 431.605469 C 380.71875 431.582031 380.488281 431.601562 380.265625 431.660156 C 364.957031 431.402344 349.640625 431.21875 334.335938 431.738281 C 318.09375 431.589844 301.851562 431.4375 285.605469 431.289062 C 267.5 431.121094 249.125 430.089844 231.078125 431.925781 C 231.023438 431.929688 230.988281 431.960938 230.933594 431.96875 C 219.609375 431.664062 208.28125 431.566406 196.953125 431.671875 C 194.320312 431.433594 191.683594 431.382812 189.046875 431.515625 C 188.78125 431.296875 188.488281 431.144531 188.160156 431.058594 C 187.003906 430.738281 185.335938 431.453125 185.140625 432.769531 C 184.90625 433.679688 185.035156 434.535156 185.53125 435.335938 C 185.535156 435.339844 185.542969 435.34375 185.546875 435.351562 C 185.4375 438.445312 185.351562 441.539062 185.285156 444.632812 C 184.960938 445.039062 184.796875 445.5 184.789062 446.015625 C 184.789062 446.339844 184.855469 446.652344 184.980469 446.953125 C 185.105469 447.25 185.28125 447.515625 185.511719 447.746094 C 185.742188 447.972656 186.003906 448.152344 186.304688 448.277344 C 186.605469 448.402344 186.914062 448.464844 187.242188 448.46875 C 188.183594 448.394531 189.128906 448.273438 190.070312 448.148438 C 190.449219 448.402344 190.863281 448.535156 191.320312 448.542969 C 205.703125 448.789062 220.085938 448.722656 234.46875 448.34375 C 234.714844 448.429688 234.96875 448.472656 235.226562 448.480469 C 235.566406 448.519531 235.902344 448.558594 236.242188 448.597656 C 236.578125 448.75 236.933594 448.824219 237.304688 448.816406 C 261.058594 448.566406 284.8125 448.371094 308.570312 448.230469 C 308.597656 448.230469 308.617188 448.246094 308.644531 448.246094 L 318.457031 448.21875 L 318.605469 448.335938 C 318.988281 448.558594 319.402344 448.671875 319.84375 448.667969 L 320.804688 448.667969 C 321.136719 448.683594 321.453125 448.613281 321.75 448.457031 C 321.828125 448.433594 321.882812 448.359375 321.957031 448.324219 C 322.332031 448.589844 322.746094 448.722656 323.207031 448.722656 C 334.199219 448.707031 345.195312 448.691406 356.191406 448.675781 C 361.484375 448.667969 366.777344 448.664062 372.070312 448.65625 C 376.242188 448.648438 380.25 448.40625 384.320312 448.039062 C 384.765625 448.472656 385.296875 448.703125 385.917969 448.722656 C 391.675781 449.039062 397.4375 448.980469 403.199219 448.867188 C 404.308594 449.136719 405.40625 449.113281 406.503906 448.800781 C 411.945312 448.6875 417.390625 448.578125 422.839844 448.75 C 428.972656 449.039062 435.105469 449.007812 441.234375 448.652344 C 443.742188 448.464844 448.714844 448.554688 450.386719 446.261719 C 450.703125 446.269531 450.980469 446.167969 451.222656 445.960938 C 451.464844 445.742188 451.644531 445.476562 451.765625 445.171875 C 452.007812 445.082031 452.199219 444.933594 452.339844 444.722656 C 453.019531 443.703125 453.699219 442.683594 454.378906 441.664062 C 454.691406 441.734375 454.972656 441.667969 455.222656 441.46875 C 456.871094 440.167969 458.304688 438.660156 459.515625 436.945312 C 460.914062 435.121094 462.34375 433.324219 463.804688 431.554688 C 466.730469 428.023438 469.792969 424.613281 472.992188 421.328125 C 473.058594 421.25 473.113281 421.164062 473.15625 421.074219 C 473.894531 420.226562 474.585938 419.339844 475.28125 418.453125 C 475.308594 418.433594 475.335938 418.429688 475.363281 418.40625 C 476.59375 417.355469 477.753906 416.238281 478.851562 415.050781 C 479.597656 414.175781 480.265625 413.246094 480.847656 412.253906 C 481.113281 412.148438 481.328125 411.980469 481.496094 411.75 C 481.941406 411.128906 482.382812 410.5 482.824219 409.871094 C 483.570312 409.257812 484.265625 408.589844 484.90625 407.863281 C 485.839844 406.816406 486.773438 405.769531 487.707031 404.71875 C 488.640625 403.671875 489.570312 402.621094 490.503906 401.574219 C 490.96875 401.140625 491.363281 400.652344 491.695312 400.109375 C 491.800781 399.878906 491.859375 399.636719 491.867188 399.386719 C 493.167969 398.082031 492.761719 395.324219 492.683594 393.691406 C 492.558594 391.035156 492.289062 388.394531 491.917969 385.765625 Z M 491.917969 385.765625 " fill-opacity="1" fill-rule="nonzero"/><g clip-path="url(#e03845fcff)"><path fill="#1ceab1" d="M 205.292969 422.769531 C 205.394531 422.992188 205.542969 423.164062 205.746094 423.296875 C 205.949219 423.425781 206.167969 423.492188 206.410156 423.492188 L 265.378906 423.632812 L 265.382812 423.632812 L 363.765625 423.867188 C 364.136719 423.867188 364.445312 423.730469 364.6875 423.453125 L 393.667969 390.402344 C 393.824219 390.21875 393.921875 390.011719 393.957031 389.773438 C 393.992188 389.535156 393.960938 389.304688 393.863281 389.085938 C 393.761719 388.867188 393.613281 388.691406 393.410156 388.5625 C 393.210938 388.429688 392.988281 388.367188 392.746094 388.363281 L 235.390625 387.988281 C 235.019531 387.988281 234.710938 388.128906 234.46875 388.40625 L 205.488281 421.457031 C 205.332031 421.636719 205.234375 421.847656 205.199219 422.085938 C 205.164062 422.324219 205.195312 422.550781 205.292969 422.769531 Z M 226.371094 401.359375 L 242.671875 401.398438 L 234.984375 410.164062 L 218.6875 410.125 Z M 245.929688 401.40625 L 262.527344 401.449219 L 254.84375 410.210938 L 238.242188 410.171875 Z M 272.101562 390.53125 L 264.675781 399 L 248.074219 398.960938 L 255.5 390.492188 Z M 291.65625 390.578125 L 284.230469 399.046875 L 267.933594 399.007812 L 275.359375 390.539062 Z M 312.433594 390.625 L 305.007812 399.097656 L 287.488281 399.054688 L 294.914062 390.585938 Z M 331.988281 390.671875 L 324.5625 399.144531 L 308.265625 399.105469 L 315.691406 390.632812 Z M 351.542969 390.71875 L 344.117188 399.191406 L 327.820312 399.152344 L 335.246094 390.679688 Z M 371.097656 390.765625 L 363.671875 399.238281 L 347.371094 399.199219 L 354.800781 390.726562 Z M 372.785156 410.496094 L 357.097656 410.457031 L 364.78125 401.691406 L 380.46875 401.730469 Z M 353.839844 410.449219 L 337.542969 410.410156 L 345.226562 401.644531 L 361.523438 401.683594 Z M 327.96875 421.328125 L 335.394531 412.859375 L 351.695312 412.898438 L 344.265625 421.367188 Z M 308.414062 421.28125 L 315.84375 412.8125 L 332.140625 412.851562 L 324.710938 421.320312 Z M 288.859375 421.234375 L 296.285156 412.765625 L 312.585938 412.804688 L 305.15625 421.273438 Z M 268.082031 421.1875 L 275.511719 412.714844 L 293.03125 412.757812 L 285.601562 421.226562 Z M 248.527344 421.140625 L 255.957031 412.667969 L 272.253906 412.707031 L 264.824219 421.179688 Z M 314.730469 410.355469 L 298.433594 410.316406 L 306.117188 401.550781 L 322.417969 401.589844 Z M 325.671875 401.597656 L 341.96875 401.636719 L 334.285156 410.402344 L 317.988281 410.363281 Z M 295.175781 410.308594 L 277.65625 410.265625 L 285.34375 401.503906 L 302.859375 401.542969 Z M 274.402344 410.257812 L 258.101562 410.21875 L 265.785156 401.457031 L 282.085938 401.496094 Z M 252.699219 412.660156 L 245.269531 421.132812 L 228.667969 421.09375 L 236.097656 412.621094 Z M 363.210938 421.414062 L 347.523438 421.375 L 354.953125 412.90625 L 370.640625 412.941406 Z M 382.617188 399.28125 L 366.929688 399.246094 L 374.355469 390.773438 L 390.042969 390.8125 Z M 235.945312 390.445312 L 252.242188 390.484375 L 244.816406 398.953125 L 228.519531 398.914062 Z M 216.542969 412.574219 L 232.839844 412.613281 L 225.410156 421.085938 L 209.113281 421.046875 Z M 376.398438 423.179688 C 376.496094 423.398438 376.648438 423.574219 376.847656 423.703125 C 377.050781 423.832031 377.273438 423.898438 377.511719 423.898438 L 417.082031 423.996094 L 417.085938 423.996094 L 437.09375 424.042969 L 437.097656 424.042969 C 437.464844 424.042969 437.773438 423.902344 438.019531 423.625 L 466.996094 390.574219 C 467.15625 390.394531 467.25 390.1875 467.289062 389.949219 C 467.324219 389.710938 467.289062 389.480469 467.191406 389.261719 C 467.09375 389.042969 466.941406 388.867188 466.742188 388.738281 C 466.539062 388.605469 466.316406 388.539062 466.078125 388.539062 L 406.496094 388.394531 L 406.492188 388.394531 C 406.125 388.398438 405.816406 388.535156 405.570312 388.8125 L 376.59375 421.863281 C 376.433594 422.042969 376.335938 422.253906 376.300781 422.492188 C 376.265625 422.730469 376.300781 422.957031 376.398438 423.179688 Z M 397.472656 401.769531 L 414.230469 401.808594 L 406.546875 410.574219 L 389.789062 410.535156 Z M 417.488281 401.816406 L 433.785156 401.855469 L 426.101562 410.621094 L 409.800781 410.582031 Z M 443.359375 390.9375 L 435.933594 399.410156 L 419.632812 399.371094 L 427.0625 390.898438 Z M 446.113281 410.667969 L 429.359375 410.628906 L 437.042969 401.863281 L 453.800781 401.902344 Z M 423.957031 413.070312 L 416.527344 421.539062 L 400.230469 421.5 L 407.65625 413.03125 Z M 436.542969 421.585938 L 419.785156 421.546875 L 427.214844 413.078125 L 443.96875 413.117188 Z M 455.945312 399.457031 L 439.191406 399.417969 L 446.617188 390.945312 L 463.375 390.984375 Z M 407.046875 390.851562 L 423.804688 390.890625 L 416.375 399.363281 L 399.621094 399.324219 Z M 387.644531 412.984375 L 404.398438 413.023438 L 396.972656 421.492188 L 380.214844 421.453125 Z M 562.363281 429.378906 C 566.191406 417.597656 565.253906 406.53125 559.792969 399.015625 C 559.667969 398.839844 559.519531 398.691406 559.386719 398.523438 C 559.359375 398.460938 559.347656 398.390625 559.320312 398.328125 C 559.214844 398.070312 559.035156 397.890625 558.777344 397.785156 C 557.070312 395.761719 555.054688 394.125 552.722656 392.875 C 553.90625 391.851562 554.90625 390.675781 555.726562 389.347656 C 556.378906 388.214844 556.878906 387.023438 557.238281 385.769531 C 557.59375 384.515625 557.792969 383.238281 557.835938 381.9375 C 557.878906 380.632812 557.761719 379.34375 557.488281 378.070312 C 557.214844 376.796875 556.789062 375.574219 556.214844 374.402344 C 550.019531 361.972656 532.71875 358.484375 520.257812 357.917969 C 504.976562 357.222656 489.609375 359.871094 474.367188 360.714844 C 459.386719 361.542969 444.3125 361.632812 429.375 360.042969 C 413.425781 358.34375 397.566406 354.503906 383.214844 347.222656 L 383.214844 334.96875 L 514.796875 334.96875 C 516.355469 334.960938 517.714844 334.4375 518.871094 333.394531 C 518.882812 333.386719 518.894531 333.382812 518.90625 333.375 L 529.972656 324.273438 C 530.082031 324.1875 530.1875 324.105469 530.285156 324.015625 L 530.34375 323.96875 C 530.363281 323.953125 530.371094 323.929688 530.390625 323.910156 C 531.007812 323.335938 531.488281 322.660156 531.828125 321.882812 C 532.167969 321.109375 532.335938 320.296875 532.339844 319.449219 L 532.339844 100.253906 C 532.339844 99.847656 532.296875 99.449219 532.21875 99.050781 C 532.140625 98.65625 532.023438 98.269531 531.867188 97.894531 C 531.710938 97.523438 531.523438 97.167969 531.296875 96.832031 C 531.074219 96.496094 530.816406 96.183594 530.53125 95.898438 C 530.246094 95.613281 529.933594 95.355469 529.597656 95.132812 C 529.261719 94.90625 528.90625 94.71875 528.535156 94.5625 C 528.160156 94.40625 527.773438 94.289062 527.378906 94.210938 C 526.980469 94.132812 526.582031 94.09375 526.175781 94.09375 L 211.117188 94.09375 C 209.953125 94.097656 208.878906 94.414062 207.898438 95.042969 C 207.800781 95.078125 207.714844 95.125 207.632812 95.183594 L 206.941406 95.757812 C 206.914062 95.785156 206.878906 95.804688 206.851562 95.835938 L 196.714844 104.273438 C 196.238281 104.539062 195.808594 104.859375 195.417969 105.242188 C 195.03125 105.621094 194.699219 106.046875 194.421875 106.515625 C 194.148438 106.984375 193.9375 107.480469 193.792969 108.007812 C 193.648438 108.53125 193.578125 109.066406 193.574219 109.609375 L 193.574219 328.804688 C 193.574219 329.210938 193.617188 329.613281 193.695312 330.007812 C 193.773438 330.40625 193.890625 330.789062 194.046875 331.164062 C 194.203125 331.535156 194.390625 331.890625 194.617188 332.226562 C 194.839844 332.5625 195.097656 332.875 195.382812 333.160156 C 195.667969 333.445312 195.980469 333.703125 196.316406 333.925781 C 196.652344 334.152344 197.007812 334.339844 197.378906 334.496094 C 197.753906 334.652344 198.140625 334.769531 198.535156 334.847656 C 198.933594 334.925781 199.332031 334.964844 199.738281 334.96875 L 343.679688 334.96875 L 343.679688 361.15625 C 326.441406 363.691406 312.976562 369.867188 307.300781 377.871094 L 229.511719 377.683594 L 229.5 377.683594 C 228.464844 377.683594 227.605469 378.074219 226.925781 378.851562 L 184.71875 426.988281 C 184.386719 427.363281 184.148438 427.792969 184.003906 428.273438 C 183.863281 428.753906 183.828125 429.242188 183.90625 429.738281 L 183.90625 445.359375 C 183.878906 445.59375 183.878906 445.828125 183.90625 446.066406 L 183.90625 446.085938 C 183.90625 446.089844 183.910156 446.09375 183.910156 446.101562 C 183.949219 446.519531 184.0625 446.917969 184.253906 447.292969 C 184.441406 447.667969 184.695312 447.996094 185.007812 448.277344 C 185.320312 448.558594 185.671875 448.773438 186.066406 448.921875 C 186.460938 449.070312 186.867188 449.140625 187.289062 449.136719 L 447.570312 449.757812 L 447.582031 449.757812 C 448.570312 449.753906 449.402344 449.390625 450.074219 448.667969 C 450.089844 448.65625 450.101562 448.644531 450.117188 448.628906 C 450.128906 448.613281 450.144531 448.605469 450.160156 448.589844 L 492.363281 400.453125 C 493.007812 399.722656 493.28125 398.871094 493.183594 397.898438 C 493.199219 397.84375 493.210938 397.785156 493.21875 397.726562 L 493.21875 381.363281 C 493.214844 381.140625 493.152344 380.941406 493.035156 380.753906 C 492.957031 380.390625 492.820312 380.050781 492.617188 379.734375 C 492.417969 379.421875 492.167969 379.152344 491.871094 378.925781 C 491.574219 378.703125 491.246094 378.535156 490.890625 378.429688 C 490.53125 378.320312 490.167969 378.28125 489.796875 378.304688 L 489.792969 378.304688 L 415.300781 378.128906 C 410.214844 370.707031 398.476562 364.820312 383.214844 361.902344 L 383.214844 353.371094 C 406.324219 364.332031 432.519531 367.0625 457.859375 366.796875 C 471.582031 366.652344 485.238281 365.546875 498.898438 364.308594 C 512.871094 363.039062 528.207031 361.832031 541.230469 368.160156 C 546.84375 370.882812 553.003906 375.691406 552.25 382.628906 C 551.847656 386.351562 549.445312 388.816406 546.484375 390.625 C 544.765625 390.277344 543.035156 390.101562 541.28125 390.101562 C 523.0625 390.101562 502.625 407.382812 495.726562 428.621094 C 491.898438 440.398438 492.835938 451.464844 498.296875 458.984375 C 502.472656 464.730469 509.046875 467.894531 516.808594 467.894531 C 532.835938 467.894531 550.570312 454.519531 559.304688 436.84375 C 559.328125 436.796875 559.351562 436.75 559.367188 436.703125 C 560.539062 434.332031 561.539062 431.890625 562.363281 429.378906 Z M 370.855469 334.96875 L 380.761719 334.96875 L 380.761719 367.042969 C 380.761719 367.300781 380.714844 367.546875 380.617188 367.785156 C 380.515625 368.023438 380.375 368.234375 380.195312 368.414062 C 380.011719 368.597656 379.800781 368.738281 379.566406 368.835938 C 379.328125 368.933594 379.078125 368.984375 378.820312 368.984375 L 370.855469 368.984375 Z M 520.074219 106.476562 L 529.816406 99.578125 C 529.859375 99.800781 529.882812 100.027344 529.886719 100.253906 L 529.886719 319.449219 C 529.886719 319.972656 529.777344 320.472656 529.5625 320.949219 C 529.347656 321.425781 529.046875 321.835938 528.65625 322.183594 L 528.566406 322.257812 C 528.324219 322.464844 528.058594 322.640625 527.773438 322.785156 C 527.773438 322.828125 527.761719 322.875 527.761719 322.917969 L 520.960938 328.511719 L 520.960938 109.609375 C 520.953125 108.484375 520.660156 107.441406 520.074219 106.476562 Z M 526.175781 96.542969 C 527.089844 96.546875 527.890625 96.851562 528.578125 97.449219 L 518.417969 104.644531 C 517.34375 103.847656 516.136719 103.449219 514.796875 103.445312 L 201.542969 103.445312 L 209.101562 97.152344 C 209.714844 96.75 210.382812 96.546875 211.117188 96.542969 Z M 196.027344 328.804688 L 196.027344 109.609375 C 196.03125 108.8125 196.265625 108.089844 196.734375 107.445312 L 198.152344 106.269531 C 198.652344 106.023438 199.179688 105.902344 199.738281 105.898438 L 514.796875 105.898438 C 515.289062 105.898438 515.761719 105.992188 516.214844 106.183594 C 516.671875 106.371094 517.070312 106.640625 517.417969 106.988281 C 517.765625 107.335938 518.035156 107.734375 518.222656 108.191406 C 518.410156 108.644531 518.507812 109.117188 518.507812 109.609375 L 518.507812 328.804688 C 518.507812 329.824219 518.148438 330.691406 517.429688 331.414062 L 517.347656 331.480469 C 517.34375 331.484375 517.339844 331.492188 517.335938 331.496094 C 516.625 332.171875 515.777344 332.511719 514.796875 332.515625 L 199.738281 332.515625 C 199.246094 332.515625 198.773438 332.417969 198.320312 332.230469 C 197.863281 332.042969 197.464844 331.773438 197.117188 331.425781 C 196.769531 331.078125 196.5 330.679688 196.3125 330.226562 C 196.125 329.769531 196.027344 329.296875 196.027344 328.804688 Z M 368.402344 334.96875 L 368.402344 368.984375 L 348.074219 368.984375 C 347.816406 368.984375 347.570312 368.933594 347.332031 368.835938 C 347.09375 368.738281 346.882812 368.597656 346.703125 368.414062 C 346.519531 368.234375 346.378906 368.023438 346.28125 367.785156 C 346.183594 367.546875 346.132812 367.300781 346.132812 367.042969 L 346.132812 334.96875 Z M 447.582031 447.304688 L 447.578125 447.304688 L 187.292969 446.683594 C 187.101562 446.6875 186.925781 446.636719 186.765625 446.53125 C 186.601562 446.425781 186.484375 446.289062 186.40625 446.109375 C 186.386719 446.046875 186.371094 445.984375 186.359375 445.921875 L 186.359375 432.539062 C 186.664062 432.625 186.972656 432.671875 187.289062 432.671875 L 447.574219 433.296875 C 447.722656 433.289062 447.867188 433.273438 448.011719 433.25 L 448.011719 447.199219 C 447.875 447.265625 447.734375 447.300781 447.582031 447.304688 Z M 490.519531 398.835938 L 450.460938 444.519531 L 450.460938 431.78125 L 490.765625 385.816406 L 490.765625 397.726562 C 490.769531 397.949219 490.835938 398.15625 490.957031 398.34375 C 490.878906 398.378906 490.804688 398.429688 490.722656 398.460938 C 490.683594 398.601562 490.617188 398.726562 490.519531 398.835938 Z M 490.675781 381.332031 C 490.757812 381.507812 490.785156 381.6875 490.753906 381.878906 C 490.726562 382.066406 490.648438 382.234375 490.519531 382.375 L 448.316406 430.511719 C 448.121094 430.730469 447.875 430.84375 447.578125 430.84375 L 187.292969 430.21875 C 187.101562 430.222656 186.925781 430.175781 186.761719 430.070312 C 186.601562 429.964844 186.484375 429.824219 186.410156 429.648438 C 186.390625 429.601562 186.371094 429.550781 186.359375 429.503906 L 186.359375 428.996094 C 186.394531 428.847656 186.464844 428.71875 186.5625 428.605469 L 228.769531 380.46875 C 228.964844 380.246094 229.207031 380.136719 229.5 380.136719 L 229.503906 380.136719 L 489.789062 380.757812 C 489.980469 380.753906 490.15625 380.804688 490.320312 380.910156 C 490.480469 381.015625 490.597656 381.15625 490.675781 381.332031 Z M 412.265625 378.121094 L 310.371094 377.878906 C 316.121094 371.203125 328.386719 365.964844 343.679688 363.644531 L 343.679688 367.042969 C 343.679688 367.332031 343.707031 367.617188 343.765625 367.898438 C 343.820312 368.183594 343.90625 368.457031 344.015625 368.722656 C 344.125 368.988281 344.261719 369.242188 344.421875 369.484375 C 344.582031 369.722656 344.765625 369.945312 344.96875 370.148438 C 345.171875 370.351562 345.394531 370.535156 345.632812 370.695312 C 345.875 370.855469 346.128906 370.992188 346.394531 371.101562 C 346.660156 371.210938 346.933594 371.296875 347.21875 371.351562 C 347.5 371.410156 347.785156 371.4375 348.074219 371.4375 L 378.820312 371.4375 C 379.109375 371.4375 379.394531 371.410156 379.679688 371.351562 C 379.960938 371.296875 380.238281 371.210938 380.503906 371.101562 C 380.769531 370.992188 381.023438 370.855469 381.261719 370.695312 C 381.503906 370.535156 381.722656 370.351562 381.929688 370.148438 C 382.132812 369.945312 382.3125 369.722656 382.472656 369.484375 C 382.632812 369.242188 382.769531 368.988281 382.878906 368.722656 C 382.992188 368.457031 383.074219 368.183594 383.132812 367.898438 C 383.1875 367.617188 383.214844 367.332031 383.214844 367.042969 L 383.214844 364.417969 C 396.589844 367.054688 407.160156 371.996094 412.265625 378.121094 Z M 560.03125 428.621094 C 559.765625 429.4375 559.445312 430.238281 559.140625 431.042969 C 558.882812 429.148438 558.390625 427.316406 557.671875 425.546875 C 558.3125 423.824219 558.855469 422.066406 559.300781 420.28125 C 560.4375 415.996094 561.015625 411.636719 561.035156 407.199219 C 562.863281 413.332031 562.582031 420.769531 560.03125 428.621094 Z M 557.289062 399.824219 C 558.207031 402.417969 558.605469 405.085938 558.484375 407.832031 C 558.425781 412.855469 557.625 417.757812 556.078125 422.539062 C 554.070312 419.699219 551.539062 417.4375 548.492188 415.757812 C 542.535156 412.3125 535.78125 410.503906 528.949219 409.710938 C 529.78125 408.664062 530.644531 407.628906 531.539062 406.613281 C 532.445312 406.921875 533.371094 407 534.316406 406.855469 C 535.921875 406.644531 537.910156 404.527344 540.804688 402.203125 C 542.523438 400.828125 544.367188 398.839844 544.199219 396.359375 C 544.179688 396.15625 544.144531 395.960938 544.097656 395.765625 C 545.40625 394.953125 546.757812 394.21875 548.152344 393.5625 C 549.960938 394.113281 551.644531 394.921875 553.203125 395.992188 C 554.761719 397.058594 556.125 398.335938 557.289062 399.824219 Z M 541.28125 392.554688 C 542.300781 392.558594 543.316406 392.625 544.328125 392.753906 C 543.703125 393.101562 543.101562 393.488281 542.492188 393.867188 C 540.691406 393.140625 537.921875 393.898438 536.449219 394.761719 C 533.738281 396.351562 530.617188 398.378906 529.40625 401.359375 C 529.136719 401.964844 529.019531 402.597656 529.0625 403.257812 C 529.101562 403.917969 529.292969 404.53125 529.632812 405.101562 C 528.386719 406.519531 527.195312 407.96875 526.058594 409.441406 C 524.785156 409.34375 523.507812 409.269531 522.238281 409.234375 C 517.902344 409.136719 513.574219 409.320312 509.261719 409.785156 C 518.160156 399.453125 530.160156 392.554688 541.28125 392.554688 Z M 498.058594 429.378906 C 500.101562 423.230469 503.105469 417.59375 507.070312 412.472656 C 517.710938 411.191406 528.867188 411.050781 539.171875 414.359375 C 544.15625 415.957031 549.296875 418.347656 552.875 422.277344 C 553.734375 423.226562 554.445312 424.273438 555.007812 425.421875 C 553.453125 429.425781 551.488281 433.21875 549.113281 436.796875 C 544.945312 443.207031 539.789062 448.6875 533.652344 453.246094 C 528.289062 457.144531 522.28125 460.0625 515.542969 460.203125 C 513.796875 460.273438 512.066406 460.128906 510.355469 459.769531 C 508.648438 459.410156 507.007812 458.84375 505.4375 458.078125 C 503.867188 457.3125 502.414062 456.363281 501.078125 455.234375 C 499.742188 454.109375 498.566406 452.835938 497.546875 451.414062 C 497.433594 451.253906 497.292969 451.128906 497.121094 451.03125 C 495.214844 444.859375 495.476562 437.328125 498.058594 429.378906 Z M 516.808594 465.441406 C 510.015625 465.441406 504.484375 462.886719 500.730469 458.085938 C 504.125 460.578125 507.914062 462.046875 512.101562 462.5 C 519.109375 463.289062 525.933594 461.128906 531.828125 457.433594 C 538.675781 453.03125 544.472656 447.523438 549.226562 440.914062 C 552.003906 437.171875 554.355469 433.179688 556.28125 428.9375 C 556.828125 431.253906 557.070312 433.601562 557.011719 435.980469 C 548.65625 452.769531 531.90625 465.441406 516.808594 465.441406 Z M 506.117188 314.175781 L 506.117188 124.234375 C 506.117188 123.832031 506.078125 123.433594 506 123.039062 C 505.921875 122.644531 505.804688 122.261719 505.652344 121.890625 C 505.5 121.519531 505.308594 121.167969 505.085938 120.832031 C 504.863281 120.496094 504.609375 120.1875 504.324219 119.902344 C 504.039062 119.621094 503.730469 119.367188 503.394531 119.140625 C 503.0625 118.917969 502.707031 118.730469 502.335938 118.574219 C 501.964844 118.421875 501.582031 118.304688 501.1875 118.226562 C 500.792969 118.148438 500.394531 118.109375 499.992188 118.109375 L 214.542969 118.109375 C 214.140625 118.109375 213.742188 118.148438 213.347656 118.226562 C 212.953125 118.304688 212.570312 118.421875 212.199219 118.574219 C 211.828125 118.730469 211.472656 118.917969 211.140625 119.140625 C 210.804688 119.367188 210.496094 119.621094 210.210938 119.902344 C 209.925781 120.1875 209.671875 120.496094 209.449219 120.832031 C 209.226562 121.167969 209.035156 121.519531 208.882812 121.890625 C 208.730469 122.261719 208.613281 122.644531 208.535156 123.039062 C 208.457031 123.433594 208.417969 123.832031 208.417969 124.234375 L 208.417969 314.175781 C 208.417969 314.578125 208.457031 314.976562 208.535156 315.371094 C 208.613281 315.765625 208.730469 316.148438 208.882812 316.523438 C 209.035156 316.894531 209.226562 317.246094 209.449219 317.582031 C 209.671875 317.914062 209.925781 318.226562 210.210938 318.507812 C 210.496094 318.792969 210.804688 319.046875 211.140625 319.269531 C 211.472656 319.496094 211.828125 319.683594 212.199219 319.835938 C 212.570312 319.992188 212.953125 320.105469 213.347656 320.1875 C 213.742188 320.265625 214.140625 320.304688 214.542969 320.304688 L 499.992188 320.304688 C 500.394531 320.304688 500.792969 320.265625 501.1875 320.1875 C 501.582031 320.105469 501.964844 319.992188 502.335938 319.835938 C 502.707031 319.683594 503.0625 319.496094 503.394531 319.269531 C 503.730469 319.046875 504.039062 318.792969 504.324219 318.507812 C 504.609375 318.226562 504.863281 317.914062 505.085938 317.582031 C 505.308594 317.246094 505.5 316.894531 505.652344 316.523438 C 505.804688 316.148438 505.921875 315.765625 506 315.371094 C 506.078125 314.976562 506.117188 314.578125 506.117188 314.175781 Z M 292.898438 219.207031 C 292.285156 219.207031 291.675781 219.148438 291.074219 219.027344 C 290.472656 218.90625 289.886719 218.730469 289.316406 218.496094 C 288.75 218.257812 288.210938 217.972656 287.699219 217.628906 C 287.191406 217.289062 286.71875 216.902344 286.285156 216.464844 C 285.847656 216.03125 285.460938 215.558594 285.121094 215.050781 C 284.777344 214.539062 284.492188 214 284.253906 213.433594 C 284.019531 212.863281 283.84375 212.277344 283.722656 211.675781 C 283.601562 211.074219 283.542969 210.464844 283.542969 209.851562 C 283.542969 209.238281 283.601562 208.628906 283.722656 208.027344 C 283.84375 207.425781 284.019531 206.839844 284.253906 206.273438 C 284.492188 205.703125 284.777344 205.164062 285.121094 204.65625 C 285.460938 204.144531 285.847656 203.671875 286.285156 203.238281 C 286.71875 202.800781 287.191406 202.414062 287.699219 202.074219 C 288.210938 201.730469 288.75 201.445312 289.316406 201.210938 C 289.886719 200.972656 290.472656 200.796875 291.074219 200.675781 C 291.675781 200.558594 292.285156 200.496094 292.898438 200.496094 C 293.511719 200.496094 294.121094 200.558594 294.722656 200.675781 C 295.324219 200.796875 295.910156 200.972656 296.476562 201.210938 C 297.046875 201.445312 297.585938 201.730469 298.09375 202.074219 C 298.605469 202.414062 299.078125 202.800781 299.511719 203.238281 C 299.949219 203.671875 300.335938 204.144531 300.675781 204.65625 C 301.019531 205.164062 301.304688 205.703125 301.539062 206.273438 C 301.777344 206.839844 301.953125 207.425781 302.074219 208.027344 C 302.191406 208.628906 302.253906 209.238281 302.253906 209.851562 C 302.253906 210.464844 302.191406 211.074219 302.074219 211.675781 C 301.953125 212.277344 301.777344 212.863281 301.539062 213.433594 C 301.304688 214 301.019531 214.539062 300.675781 215.050781 C 300.335938 215.558594 299.949219 216.03125 299.511719 216.464844 C 299.078125 216.902344 298.605469 217.289062 298.09375 217.628906 C 297.585938 217.972656 297.046875 218.257812 296.476562 218.496094 C 295.910156 218.730469 295.324219 218.90625 294.722656 219.027344 C 294.121094 219.148438 293.511719 219.207031 292.898438 219.207031 Z M 368.519531 240.859375 C 368.207031 242.113281 367.796875 243.332031 367.285156 244.515625 C 366.773438 245.699219 366.167969 246.835938 365.46875 247.917969 C 364.769531 249.003906 363.988281 250.023438 363.121094 250.980469 C 362.25 251.933594 361.3125 252.8125 360.296875 253.609375 C 359.285156 254.410156 358.214844 255.121094 357.082031 255.742188 C 355.953125 256.367188 354.777344 256.890625 353.5625 257.320312 C 352.34375 257.746094 351.097656 258.070312 349.828125 258.292969 C 348.558594 258.515625 347.277344 258.632812 345.984375 258.644531 C 344.695312 258.652344 343.414062 258.558594 342.136719 258.355469 C 340.863281 258.15625 339.613281 257.851562 338.390625 257.441406 C 337.164062 257.035156 335.984375 256.527344 334.84375 255.921875 C 333.703125 255.320312 332.621094 254.625 331.59375 253.84375 C 330.566406 253.058594 329.613281 252.199219 328.730469 251.257812 C 327.847656 250.316406 327.046875 249.308594 326.332031 248.238281 C 325.613281 247.164062 324.988281 246.039062 324.460938 244.863281 C 323.929688 243.6875 323.496094 242.472656 323.167969 241.226562 C 323.070312 240.878906 323.015625 240.523438 323 240.160156 C 322.984375 239.800781 323.007812 239.441406 323.074219 239.085938 C 323.144531 238.726562 323.25 238.382812 323.394531 238.054688 C 323.542969 237.722656 323.722656 237.410156 323.941406 237.121094 C 324.160156 236.832031 324.40625 236.574219 324.6875 236.339844 C 324.964844 236.109375 325.265625 235.910156 325.589844 235.746094 C 325.910156 235.585938 326.25 235.460938 326.601562 235.375 C 326.953125 235.289062 327.3125 235.246094 327.671875 235.242188 L 363.933594 235.242188 C 364.28125 235.238281 364.628906 235.273438 364.96875 235.347656 C 365.308594 235.421875 365.636719 235.53125 365.953125 235.679688 C 366.269531 235.828125 366.5625 236.007812 366.835938 236.222656 C 367.113281 236.433594 367.359375 236.675781 367.582031 236.945312 C 367.800781 237.214844 367.988281 237.507812 368.144531 237.820312 C 368.296875 238.132812 368.414062 238.457031 368.496094 238.796875 C 368.578125 239.136719 368.621094 239.476562 368.625 239.828125 C 368.628906 240.175781 368.59375 240.519531 368.519531 240.859375 Z M 396.914062 219.207031 C 396.300781 219.207031 395.691406 219.148438 395.089844 219.027344 C 394.484375 218.90625 393.902344 218.730469 393.332031 218.496094 C 392.765625 218.257812 392.226562 217.972656 391.714844 217.628906 C 391.207031 217.289062 390.734375 216.902344 390.300781 216.464844 C 389.863281 216.03125 389.476562 215.558594 389.136719 215.050781 C 388.792969 214.539062 388.507812 214 388.269531 213.433594 C 388.035156 212.863281 387.859375 212.277344 387.738281 211.675781 C 387.617188 211.074219 387.558594 210.464844 387.558594 209.851562 C 387.558594 209.238281 387.617188 208.628906 387.738281 208.027344 C 387.859375 207.425781 388.035156 206.839844 388.269531 206.273438 C 388.507812 205.703125 388.792969 205.164062 389.136719 204.65625 C 389.476562 204.144531 389.863281 203.671875 390.300781 203.238281 C 390.734375 202.800781 391.207031 202.414062 391.714844 202.074219 C 392.226562 201.730469 392.765625 201.445312 393.332031 201.210938 C 393.902344 200.972656 394.484375 200.796875 395.089844 200.675781 C 395.691406 200.558594 396.300781 200.496094 396.914062 200.496094 C 397.527344 200.496094 398.136719 200.558594 398.738281 200.675781 C 399.339844 200.796875 399.925781 200.972656 400.492188 201.210938 C 401.0625 201.445312 401.601562 201.730469 402.109375 202.074219 C 402.621094 202.414062 403.09375 202.800781 403.527344 203.238281 C 403.964844 203.671875 404.351562 204.144531 404.691406 204.65625 C 405.03125 205.164062 405.320312 205.703125 405.554688 206.273438 C 405.792969 206.839844 405.96875 207.425781 406.089844 208.027344 C 406.207031 208.628906 406.269531 209.238281 406.269531 209.851562 C 406.269531 210.464844 406.207031 211.074219 406.089844 211.675781 C 405.96875 212.277344 405.792969 212.863281 405.554688 213.433594 C 405.320312 214 405.03125 214.539062 404.691406 215.050781 C 404.351562 215.558594 403.960938 216.03125 403.527344 216.464844 C 403.09375 216.902344 402.621094 217.289062 402.109375 217.628906 C 401.601562 217.972656 401.0625 218.257812 400.492188 218.496094 C 399.925781 218.730469 399.339844 218.90625 398.738281 219.027344 C 398.136719 219.148438 397.527344 219.207031 396.914062 219.207031 Z M 396.914062 219.207031 " fill-opacity="1" fill-rule="nonzero"/></g></svg>