<?xml version="1.0" standalone="no"?>
<!DOCTYPE svg PUBLIC "-//W3C//DTD SVG 20010904//EN"
 "http://www.w3.org/TR/2001/REC-SVG-20010904/DTD/svg10.dtd">
<svg version="1.0" xmlns="http://www.w3.org/2000/svg"
 width="200" height="200" viewBox="0 0 4096.000000 4096.000000"
 preserveAspectRatio="xMidYMid meet">

<g transform="translate(0.000000,4096.000000) scale(0.100000,-0.100000)"
fill="#000000" stroke="none">
<path d="M0 20480 l0 -20480 20480 0 20480 0 0 20480 0 20480 -20480 0 -20480
0 0 -20480z m9450 5785 l0 -1035 -25 0 c-14 0 -25 4 -25 10 0 5 6 7 14 4 8 -3
17 -1 21 5 4 7 -6 11 -25 11 -22 0 -31 -4 -27 -12 3 -9 -9 -14 -39 -16 -34 -2
-44 1 -44 13 0 15 -14 19 -55 17 -11 -1 -39 -3 -62 -4 -33 -2 -40 -5 -31 -15
8 -10 5 -13 -16 -13 -27 0 -35 15 -13 23 7 3 5 6 -5 6 -10 1 -18 -3 -18 -9 0
-5 -4 -10 -8 -10 -9 0 -35 88 -118 410 -30 118 -69 267 -85 330 -17 63 -50
192 -74 285 -25 94 -53 203 -64 243 l-19 73 357 359 c196 197 357 359 359 359
1 1 2 -465 2 -1034z m11495 806 c-10 -9 -1077 -666 -1309 -806 l-130 -78 -70
2 c-51 1 -67 -2 -56 -9 9 -6 10 -10 3 -10 -6 0 -15 5 -18 10 -7 11 -48 14 -59
3 -10 -11 -37 -12 -30 -2 8 13 -40 11 -54 -3 -9 -9 -12 -9 -12 0 0 9 -29 12
-101 12 -55 0 -98 -4 -95 -8 3 -5 -1 -9 -9 -9 -8 0 -12 4 -9 9 6 10 -100 11
-110 1 -10 -11 -36 -12 -36 -2 0 5 -21 9 -46 9 -30 0 -43 -4 -38 -11 5 -8 1
-8 -14 0 -28 15 -45 14 -36 -1 6 -10 4 -10 -7 0 -7 6 -22 12 -33 12 -17 0 -18
-2 -6 -10 12 -8 10 -10 -8 -10 -13 0 -20 4 -17 10 4 6 -26 10 -83 10 l-89 0
-6 68 c-9 85 -9 212 -1 212 3 0 37 -29 76 -64 38 -36 75 -63 81 -61 7 2 100
31 207 65 107 34 206 65 220 70 26 9 270 86 585 185 99 31 191 60 205 65 14 5
99 32 190 60 330 103 516 161 540 170 14 5 99 32 190 60 91 28 170 53 175 55
17 6 19 5 10 -4z m1990 -1856 c224 -291 552 -718 729 -948 421 -548 756 -986
833 -1089 34 -46 73 -95 85 -109 13 -15 136 -174 273 -354 138 -180 301 -393
363 -473 62 -81 338 -439 613 -796 l500 -649 -7 -1851 c-5 -1313 -4 -1861 4
-1886 69 -224 96 -314 112 -362 10 -32 15 -58 10 -58 -5 0 -16 -7 -24 -16 -10
-10 -16 -11 -16 -4 0 7 -7 9 -16 6 -10 -4 -13 -2 -8 6 5 7 2 9 -8 5 -9 -3 -25
1 -37 9 -15 11 -21 12 -21 3 0 -7 -3 -9 -7 -5 -4 3 -13 -4 -21 -16 -7 -13 -11
-16 -9 -7 4 12 0 15 -20 11 -20 -4 -24 -2 -18 9 7 12 6 12 -7 1 -11 -9 -18
-10 -23 -2 -10 17 -25 12 -35 -12 -6 -16 -9 -18 -9 -7 -1 9 -8 23 -18 30 -15
13 -15 12 -5 -8 11 -19 10 -21 -8 -18 -12 2 -28 1 -36 -2 -13 -5 -13 -7 -2
-14 9 -6 9 -9 1 -9 -6 0 -15 5 -18 10 -3 6 -15 10 -25 10 -10 0 -20 6 -23 13
-3 8 -9 6 -19 -7 -12 -15 -17 -16 -23 -6 -5 9 -4 11 3 6 8 -4 12 0 12 11 -1
16 -3 15 -19 -4 -15 -18 -20 -20 -25 -8 -3 8 -10 15 -16 15 -6 0 -8 -6 -4 -12
6 -10 5 -10 -8 -1 -8 7 -19 9 -23 5 -5 -4 -5 -2 -1 5 3 6 2 14 -4 18 -5 3 -10
-1 -10 -10 0 -9 -6 -15 -12 -12 -7 2 -22 -3 -32 -12 -11 -9 -17 -11 -13 -5 4
6 -8 15 -28 21 -33 11 -34 10 -24 -9 8 -15 8 -19 0 -14 -6 4 -11 1 -11 -6 0
-10 -2 -10 -9 1 -5 8 -7 20 -4 28 3 7 0 13 -6 13 -6 0 -11 -6 -11 -14 0 -17
-48 -16 -55 2 -6 15 -26 16 -23 1 2 -6 -3 -14 -11 -17 -9 -3 -11 0 -7 9 4 8 0
5 -10 -6 -12 -15 -15 -16 -11 -4 4 12 -1 18 -18 22 -14 2 -23 1 -21 -2 2 -3
-2 -12 -10 -19 -10 -9 -14 -9 -14 -1 0 6 -7 8 -16 5 -8 -3 -13 -2 -10 3 3 5
-5 9 -19 9 -14 0 -23 -4 -20 -8 2 -3 -2 -7 -10 -7 -11 0 -12 4 -4 13 7 8 7 14
-1 19 -5 3 -10 1 -10 -5 0 -6 -4 -8 -10 -5 -5 3 -10 1 -10 -5 0 -6 -4 -8 -10
-5 -6 3 -7 -1 -4 -9 4 -9 1 -16 -6 -16 -10 0 -10 -4 0 -15 11 -13 15 -13 21
-3 7 10 9 10 9 -2 0 -12 2 -12 9 -1 5 7 11 9 14 4 6 -10 84 -9 94 1 4 3 13 0
21 -7 13 -9 14 -9 8 1 -4 6 -2 12 3 12 6 0 11 -3 11 -8 0 -4 13 -8 29 -8 24
-1 29 2 26 17 -2 11 0 17 6 14 5 -4 7 -11 4 -16 -4 -5 -1 -9 5 -9 6 0 8 -5 4
-12 -4 -7 -3 -8 5 -4 6 4 9 11 6 16 -3 5 -1 12 5 15 6 4 9 1 8 -6 -4 -18 180
-19 191 0 6 10 10 9 14 -3 4 -9 14 -16 22 -16 9 0 14 4 11 8 -3 5 1 9 9 9 8 0
12 -4 9 -9 -8 -13 10 -10 25 5 11 10 12 9 6 -2 -6 -11 -1 -12 29 -7 24 5 36 3
36 -5 0 -7 9 -6 25 5 29 19 95 22 95 4 0 -9 3 -9 12 0 9 9 15 9 25 0 11 -9 15
-7 20 10 l5 21 19 -22 c13 -16 18 -18 19 -7 0 13 1 13 10 0 6 -10 10 -11 10
-3 0 9 7 10 23 5 26 -9 74 -8 84 1 3 4 13 1 21 -6 13 -9 14 -9 8 1 -4 6 -3 12
2 12 14 0 33 -58 21 -65 -5 -4 -7 -10 -4 -15 3 -5 1 -11 -5 -15 -5 -3 -10 -1
-10 5 0 7 -7 10 -17 6 -15 -5 -15 -3 1 9 17 13 18 17 6 28 -10 9 -12 9 -6 0 9
-17 -6 -17 -24 0 -12 10 -12 9 -2 -4 10 -13 9 -19 -3 -29 -13 -11 -15 -10 -9
6 5 18 5 18 -9 2 -8 -10 -17 -15 -21 -11 -10 10 -76 14 -76 5 0 -4 -9 -8 -19
-8 -11 0 -17 4 -15 8 3 4 -6 8 -20 8 -14 0 -26 -4 -26 -10 0 -5 -4 -10 -10
-10 -5 0 -10 7 -10 15 0 17 -26 20 -35 5 -5 -8 -12 -7 -23 2 -14 11 -15 10 -9
-6 6 -16 5 -17 -7 -7 -8 7 -12 20 -9 29 3 9 3 14 -1 10 -7 -5 -13 -27 -15 -51
-1 -5 -6 -5 -11 -2 -6 4 -8 11 -4 16 3 6 -7 7 -25 4 -18 -3 -31 -1 -31 5 0 17
-18 11 -24 -7 -3 -10 -4 -6 -2 10 2 15 -1 27 -5 27 -5 0 -9 -9 -9 -19 0 -27
-14 -33 -36 -16 -10 8 -14 15 -9 15 6 0 17 -6 24 -12 11 -11 11 -9 1 8 -12 19
-41 30 -37 13 1 -4 -2 -7 -8 -7 -5 0 -9 3 -8 7 1 4 -4 8 -11 8 -7 0 -13 -6
-13 -13 0 -7 3 -12 6 -10 3 2 12 -3 19 -10 11 -13 10 -14 -12 -10 -15 3 -36 8
-47 11 -16 5 -20 4 -15 -6 4 -8 1 -6 -7 3 -16 20 -57 20 -57 1 0 -7 -5 -13
-11 -13 -5 0 -8 4 -5 9 3 5 0 11 -8 14 -8 3 -17 -1 -20 -9 -6 -16 -42 -19 -51
-4 -3 6 -17 10 -31 10 -14 0 -23 -4 -19 -9 3 -5 1 -12 -5 -16 -5 -3 -10 -1
-10 5 0 7 -7 10 -17 6 -16 -6 -17 -5 -2 7 15 11 14 14 -8 24 -20 10 -22 9 -14
-1 8 -10 7 -17 -4 -26 -13 -11 -15 -10 -9 6 5 18 5 18 -9 1 -8 -10 -18 -14
-21 -9 -6 10 -52 9 -116 -2 -24 -4 -27 -3 -10 2 14 5 20 11 14 15 -6 3 -20 0
-30 -8 -25 -19 -34 -19 -34 0 0 17 -26 20 -35 5 -5 -8 -12 -7 -23 2 -14 11
-15 10 -9 -6 6 -16 5 -17 -8 -6 -12 10 -16 9 -21 -4 -3 -9 -10 -13 -15 -10 -5
3 -7 10 -3 15 3 6 -7 7 -25 4 -20 -3 -31 -1 -31 6 0 6 -7 8 -16 5 -12 -4 -15
-2 -10 9 3 8 1 15 -4 15 -6 0 -10 -9 -10 -19 0 -27 -14 -33 -36 -16 -10 8 -14
15 -9 15 6 0 17 -6 24 -12 11 -11 11 -9 1 8 -12 19 -41 30 -37 13 1 -4 -2 -7
-8 -7 -5 0 -9 3 -8 7 1 4 -5 8 -12 8 -12 0 -12 -3 -2 -16 6 -9 17 -19 22 -24
6 -4 -1 -5 -15 -3 -14 3 -31 5 -39 5 -8 1 -11 7 -7 17 5 14 4 15 -9 4 -8 -7
-12 -17 -9 -24 3 -6 -1 -3 -9 6 -16 20 -57 20 -57 1 0 -7 -5 -13 -11 -13 -5 0
-8 4 -5 9 3 5 0 11 -8 14 -8 3 -17 -1 -20 -9 -6 -17 -37 -19 -53 -3 -6 6 -9
17 -7 23 2 6 -5 12 -17 13 -17 2 -18 -1 -9 -13 10 -11 9 -14 -4 -14 -9 0 -15
-3 -15 -7 3 -20 -2 -27 -10 -14 -7 10 -14 12 -23 5 -8 -5 -7 -2 3 6 15 15 14
17 -8 27 -20 10 -22 9 -14 -1 8 -10 7 -17 -4 -26 -13 -11 -15 -10 -9 6 5 18 5
18 -9 1 -8 -10 -17 -14 -20 -10 -6 9 -61 9 -112 1 -16 -3 -23 -3 -15 -1 27 9
35 23 10 18 -13 -2 -28 -9 -34 -15 -14 -14 -26 -12 -26 5 0 18 -27 20 -33 3
-3 -10 -8 -9 -22 2 -17 14 -18 13 -12 -4 6 -15 5 -17 -7 -7 -11 9 -15 8 -20
-4 -3 -9 -10 -13 -16 -10 -6 4 -8 11 -4 16 3 6 -7 7 -25 4 -20 -3 -31 -1 -31
6 0 6 -7 8 -16 5 -12 -4 -15 -2 -10 9 3 8 1 15 -4 15 -6 0 -10 -9 -10 -19 0
-11 -4 -22 -8 -25 -13 -8 -53 24 -46 36 4 6 2 8 -4 4 -6 -3 -9 -15 -7 -26 5
-25 -33 -23 -47 3 -7 14 -12 16 -24 7 -7 -7 -11 -17 -8 -24 3 -6 -1 -3 -9 6
-16 20 -57 20 -57 1 0 -7 -5 -13 -11 -13 -5 0 -8 4 -5 9 3 5 0 11 -8 14 -8 3
-17 -1 -20 -9 -5 -14 -31 -15 -53 -1 -7 4 -10 13 -7 20 3 8 -4 13 -17 14 -17
2 -18 -1 -9 -13 10 -11 9 -14 -4 -14 -9 0 -15 -3 -15 -7 3 -20 -2 -27 -10 -14
-7 10 -14 12 -23 5 -8 -5 -7 -2 3 6 15 15 14 17 -8 27 -20 10 -22 9 -14 -1 8
-10 7 -17 -4 -26 -13 -11 -15 -10 -9 6 5 18 5 18 -9 2 -10 -13 -16 -15 -25 -6
-9 9 -12 9 -12 0 0 -10 -5 -10 -20 -2 -15 8 -30 8 -56 0 -19 -6 -40 -9 -47 -7
-6 3 -2 6 10 6 12 1 24 5 28 10 7 13 -35 5 -49 -9 -14 -14 -26 -12 -26 5 0 18
-27 20 -33 3 -3 -10 -7 -10 -20 0 -13 12 -19 10 -33 -7 -16 -18 -41 -20 -29
-2 2 5 -12 6 -31 4 -26 -3 -34 0 -28 8 5 9 2 10 -10 6 -14 -5 -17 -3 -12 8 3
8 1 15 -4 15 -6 0 -10 -7 -10 -15 0 -20 -17 -19 -29 3 -6 9 -11 13 -11 8 0 -5
8 -18 18 -29 16 -19 16 -20 -5 -8 -15 7 -24 8 -28 1 -8 -14 -47 -2 -58 17 -7
11 -12 11 -23 2 -7 -6 -11 -16 -8 -23 3 -6 -1 -3 -9 6 -16 20 -57 20 -57 1 0
-7 -5 -13 -11 -13 -5 0 -8 4 -5 9 3 5 -1 12 -10 15 -11 4 -15 2 -11 -7 3 -8
-4 -13 -22 -12 -33 1 -51 12 -45 28 3 8 -4 13 -17 14 -17 2 -18 -1 -9 -13 10
-11 9 -14 -4 -14 -9 0 -15 -3 -15 -7 3 -20 -2 -27 -10 -14 -7 10 -14 12 -23 5
-8 -5 -7 -2 3 6 15 15 14 17 -8 27 -20 10 -22 9 -14 -1 8 -10 7 -17 -4 -26
-13 -11 -15 -10 -9 6 5 18 5 18 -9 2 -10 -13 -16 -15 -25 -6 -9 9 -12 9 -12 0
0 -13 -21 -12 -31 2 -4 4 -23 3 -43 -4 -20 -6 -42 -9 -49 -7 -6 3 -2 6 10 6
12 1 24 5 28 10 7 13 -35 5 -49 -9 -15 -15 -26 -12 -26 8 0 14 -2 15 -10 2 -8
-13 -10 -12 -11 5 -1 17 -2 17 -6 3 -5 -20 -18 -23 -28 -8 -4 6 -11 7 -17 4
-6 -4 -5 -10 3 -16 11 -8 10 -9 -3 -4 -10 3 -20 1 -23 -5 -4 -5 -11 -7 -16 -3
-5 3 -7 9 -4 13 2 5 -12 6 -31 4 -26 -3 -34 0 -28 8 5 9 2 10 -10 6 -14 -5
-17 -3 -12 8 3 8 1 15 -4 15 -6 0 -10 -7 -10 -15 0 -17 -16 -20 -25 -5 -4 6
-14 1 -25 -12 -15 -19 -20 -20 -34 -9 -9 7 -16 10 -16 5 0 -5 -5 -1 -11 9 -8
14 -14 16 -25 6 -7 -6 -11 -16 -8 -23 3 -6 -1 -3 -9 6 -16 20 -57 20 -57 0 0
-10 -4 -10 -16 2 -19 19 -28 21 -21 3 3 -8 -4 -13 -22 -12 -33 1 -51 12 -45
28 3 8 -4 13 -17 14 -17 2 -18 -1 -9 -13 10 -11 9 -14 -4 -14 -9 0 -15 -3 -15
-7 3 -20 -2 -27 -10 -14 -7 10 -14 12 -23 5 -8 -5 -6 -2 4 7 17 16 17 17 -2
22 -11 3 -18 2 -15 -3 3 -4 -2 -13 -9 -19 -12 -10 -13 -8 -9 10 4 15 3 20 -5
15 -7 -4 -12 -14 -12 -23 0 -13 -3 -13 -15 -3 -10 9 -15 9 -15 1 0 -12 -22
-11 -31 3 -4 4 -23 3 -43 -4 -20 -6 -42 -9 -49 -7 -6 3 -2 6 10 6 12 1 25 7
29 14 4 6 4 9 -1 5 -4 -4 -14 0 -22 10 -9 12 -12 13 -8 2 3 -8 -4 -21 -15 -28
-17 -11 -21 -10 -27 5 -6 15 -7 15 -14 -3 -7 -17 -8 -17 -8 4 -1 13 -5 21 -11
17 -5 -3 -6 -13 -3 -23 6 -16 5 -16 -14 1 -19 16 -21 16 -38 -3 -16 -18 -42
-19 -30 -1 2 5 -12 6 -31 4 -25 -3 -33 0 -28 8 4 7 2 10 -7 7 -8 -3 -13 -11
-11 -18 3 -11 0 -11 -12 0 -13 10 -19 10 -31 0 -10 -9 -15 -9 -15 -1 0 6 5 11
11 11 5 0 7 5 4 10 -4 6 -14 1 -25 -12 -15 -19 -20 -20 -34 -9 -9 7 -16 10
-16 5 0 -5 -5 -1 -11 9 -8 14 -14 16 -25 6 -7 -6 -11 -16 -8 -23 3 -6 -1 -3
-9 7 -16 19 -32 24 -21 6 4 -8 0 -9 -15 -4 -13 4 -21 2 -21 -5 0 -7 -6 -5 -16
4 -19 19 -28 21 -21 3 3 -8 -4 -13 -22 -12 -33 1 -51 12 -45 28 3 8 -4 13 -17
14 -17 2 -18 -1 -9 -13 10 -11 9 -14 -4 -14 -10 0 -15 -4 -11 -9 3 -5 1 -12
-4 -15 -5 -3 -11 7 -13 22 -3 15 -9 36 -13 47 -5 11 -4 17 0 12 5 -4 15 5 21
20 13 28 13 28 8 2 -4 -19 -1 -26 10 -26 9 0 16 5 16 10 0 5 6 4 14 -2 10 -8
16 -9 21 -1 9 14 21 13 39 -6 9 -8 16 -11 16 -5 0 6 27 9 70 7 39 -2 70 1 70
5 0 5 7 6 15 3 9 -4 15 0 15 7 0 11 2 11 9 -1 6 -8 7 -19 4 -25 -4 -5 3 -2 14
8 21 18 48 24 38 8 -3 -5 -1 -12 4 -15 5 -3 12 1 15 10 3 9 11 12 18 8 18 -11
81 -14 93 -4 6 5 28 8 49 8 24 0 34 -3 26 -8 -8 -5 -4 -8 13 -7 15 1 27 6 27
11 0 6 6 2 13 -8 12 -16 13 -16 14 5 2 26 19 46 30 35 4 -4 2 -11 -5 -15 -10
-6 -10 -11 3 -21 12 -10 15 -10 15 1 0 11 2 11 10 -1 8 -12 10 -12 10 -1 0 11
3 11 15 1 8 -7 15 -9 15 -5 0 4 6 2 13 -4 8 -6 17 -7 21 -3 7 7 11 8 37 11 5
0 7 7 3 14 -4 6 3 3 16 -8 13 -11 21 -15 18 -10 -4 6 0 19 9 30 14 19 14 19 8
-6 -5 -19 -2 -26 9 -26 9 0 16 5 16 11 0 6 4 6 11 -1 9 -9 18 -7 38 5 25 16
26 16 11 -3 -11 -14 -11 -17 -1 -11 8 5 17 3 22 -5 6 -9 9 -10 9 -2 0 8 21 11
68 9 51 -2 70 1 80 13 8 9 11 10 7 4 -3 -7 -1 -13 4 -13 6 0 11 6 11 13 0 8 3
7 9 -3 6 -8 7 -19 4 -25 -4 -5 2 -2 13 7 15 13 23 15 32 6 8 -8 15 -8 25 0 8
7 17 9 21 5 10 -11 85 -13 91 -2 9 14 45 11 46 -3 0 -10 2 -10 6 0 2 6 12 12
21 12 14 0 14 -2 3 -9 -10 -7 -7 -9 12 -8 14 1 23 5 20 10 -9 14 10 7 21 -9
10 -13 12 -12 13 7 2 26 19 46 30 35 4 -4 2 -11 -5 -15 -10 -6 -10 -11 3 -21
12 -10 15 -10 15 1 0 11 2 11 10 -1 8 -12 10 -12 10 -1 0 11 3 11 15 1 8 -7
15 -9 15 -5 0 4 6 2 14 -4 10 -8 16 -9 21 -1 3 6 10 8 14 6 4 -3 13 -1 21 4 9
5 20 4 29 -3 12 -9 13 -9 7 1 -4 6 -2 12 3 12 6 0 11 -4 11 -8 0 -5 7 -9 15
-9 8 0 15 5 15 10 0 5 7 4 15 -3 12 -10 21 -8 13 3 -1 1 4 12 10 24 10 17 9
22 -5 27 -9 4 -18 4 -21 1 -3 -3 1 -5 9 -5 11 0 11 -2 -1 -10 -20 -13 -33 -13
-25 0 3 6 -1 10 -9 10 -9 0 -16 6 -16 13 0 9 -3 8 -9 -2 -5 -8 -14 -10 -22 -6
-11 6 -12 5 -1 -6 15 -16 16 -29 1 -29 -5 0 -7 5 -4 10 4 7 -6 10 -28 8 -19
-1 -46 6 -60 15 -23 15 -28 15 -40 2 -8 -8 -17 -11 -21 -8 -3 3 -15 -2 -27
-13 -15 -14 -20 -15 -17 -4 2 8 -3 14 -10 12 -7 -1 -15 5 -18 13 -5 12 -10 13
-20 4 -8 -6 -12 -15 -9 -19 3 -5 1 -11 -5 -15 -5 -3 -10 1 -10 9 0 8 -5 18
-12 22 -7 5 -9 2 -5 -9 4 -12 1 -15 -14 -12 -27 5 -55 -5 -39 -15 8 -5 7 -9
-5 -13 -9 -4 -14 -3 -10 3 4 6 -4 14 -16 18 -14 5 -18 11 -11 16 6 3 13 2 17
-4 4 -7 13 -7 26 0 11 6 25 8 31 4 7 -4 8 -3 4 4 -4 7 -18 9 -33 6 -19 -5 -30
-2 -41 12 -13 16 -14 17 -9 2 4 -12 1 -18 -10 -18 -9 0 -21 -7 -28 -17 -9 -13
-14 -13 -20 -3 -5 9 -4 11 3 6 7 -4 12 -1 12 10 0 14 -2 14 -16 3 -16 -13 -56
-21 -49 -9 2 4 -3 16 -11 26 -15 19 -15 19 -10 0 5 -15 4 -17 -8 -7 -11 9 -15
8 -20 -4 -3 -9 -10 -14 -15 -10 -5 3 -12 1 -16 -5 -4 -6 -10 -8 -15 -5 -5 3
-12 0 -16 -6 -5 -8 -3 -9 6 -4 9 5 11 4 6 -4 -4 -6 -12 -9 -17 -5 -5 3 -7 10
-4 15 4 5 -4 13 -17 18 -13 6 -17 10 -10 10 6 1 12 7 12 14 -1 6 -9 2 -20 -11
-10 -13 -17 -31 -14 -40 5 -15 4 -15 -6 1 -6 9 -8 22 -5 27 3 6 1 10 -4 10 -6
0 -11 -7 -11 -16 0 -11 -5 -14 -17 -10 -9 4 -20 1 -25 -6 -6 -8 -7 -4 -3 11 7
23 7 23 -16 7 -26 -18 -43 -21 -34 -6 3 5 -1 10 -9 10 -9 0 -16 5 -16 10 0 6
-6 5 -14 -2 -7 -7 -11 -20 -9 -28 4 -11 3 -12 -4 -2 -5 7 -23 12 -40 10 -17
-1 -43 6 -58 16 -26 17 -29 17 -40 2 -7 -8 -15 -13 -18 -9 -4 3 -16 -2 -28
-13 -15 -14 -20 -15 -17 -4 2 8 -3 14 -10 12 -7 -1 -15 5 -18 13 -5 12 -10 13
-20 4 -8 -6 -12 -15 -9 -19 3 -5 1 -11 -5 -15 -5 -3 -10 1 -10 9 0 8 -5 18
-12 22 -7 5 -9 2 -5 -9 4 -12 1 -15 -14 -12 -27 5 -55 -5 -39 -15 8 -5 7 -9
-5 -13 -10 -4 -14 -3 -10 4 4 6 -2 13 -14 16 -12 3 -21 9 -21 14 0 15 -22 10
-35 -8 -9 -13 -14 -13 -20 -3 -5 9 -4 11 3 6 7 -4 12 -1 12 10 0 14 -2 14 -16
3 -16 -13 -56 -21 -49 -9 2 4 -3 16 -11 26 -15 19 -15 19 -10 0 5 -15 4 -17
-8 -7 -11 9 -15 8 -20 -4 -3 -9 -10 -14 -15 -10 -5 3 -12 1 -16 -5 -4 -6 -10
-8 -15 -5 -5 3 -12 0 -16 -6 -5 -8 -3 -9 6 -4 9 5 11 4 6 -4 -4 -6 -12 -9 -17
-5 -5 3 -7 10 -3 15 3 6 -4 13 -15 16 -14 3 -19 10 -14 17 5 7 0 4 -9 -7 -9
-10 -15 -26 -12 -35 5 -15 4 -15 -6 1 -6 9 -8 22 -5 27 3 6 1 10 -4 10 -6 0
-11 -6 -11 -14 0 -8 -7 -17 -16 -20 -8 -3 -12 -2 -9 4 3 6 2 10 -4 10 -5 0
-12 -6 -15 -12 -3 -7 -3 -2 0 11 4 16 3 21 -5 17 -6 -4 -11 -2 -11 4 0 6 -5 8
-12 4 -9 -6 -9 -9 0 -12 19 -6 14 -18 -8 -19 -11 -1 -18 2 -15 8 4 5 0 9 -7 9
-7 0 12 13 43 29 86 44 288 162 302 175 7 6 28 23 47 36 125 86 343 287 450
415 123 146 227 309 321 500 124 255 173 413 231 745 17 101 17 560 0 655 -7
39 -18 97 -24 130 -45 251 -149 530 -283 761 -369 635 -990 1067 -1710 1189
-269 46 -637 42 -870 -10 -391 -86 -695 -219 -978 -427 -550 -406 -898 -1004
-983 -1688 -20 -164 -15 -500 10 -655 85 -534 329 -1003 717 -1381 63 -60 134
-125 159 -144 25 -19 47 -37 50 -40 3 -4 46 -35 97 -71 92 -64 179 -116 308
-184 84 -44 80 -41 60 -49 -9 -3 -13 -2 -10 4 3 6 -1 10 -9 10 -27 0 -18 -20
14 -31 17 -6 30 -18 30 -27 0 -25 -39 -84 -50 -77 -6 4 -8 10 -5 15 3 4 -11 7
-30 5 -20 -1 -32 2 -28 8 3 5 0 7 -8 5 -8 -3 -13 -11 -11 -18 3 -11 0 -11 -12
0 -13 10 -19 10 -31 0 -10 -9 -15 -9 -15 -1 0 6 5 11 11 11 5 0 7 5 4 10 -4 6
-14 1 -25 -12 -14 -18 -21 -20 -32 -10 -8 6 -18 9 -21 5 -4 -3 -7 -2 -7 3 0 5
-9 10 -20 11 -11 1 -18 -2 -15 -8 4 -5 1 -9 -4 -9 -6 0 -11 5 -11 10 0 6 -5
10 -11 10 -5 0 -7 -5 -3 -11 4 -8 0 -9 -15 -4 -13 4 -21 2 -21 -5 0 -7 -6 -5
-16 4 -19 19 -28 21 -21 3 7 -18 -49 -16 -65 2 -11 11 -10 12 1 6 9 -5 12 -4
8 2 -4 6 -15 13 -26 16 -15 3 -18 1 -14 -11 4 -10 2 -13 -5 -8 -8 5 -12 0 -12
-14 0 -17 -2 -19 -14 -8 -10 9 -11 15 -2 20 7 5 3 8 -9 9 l-20 0 20 10 20 9
-20 -3 c-11 -1 -20 -8 -20 -16 0 -8 -8 -19 -18 -25 -14 -8 -20 -8 -27 4 -9 13
-11 13 -20 0 -5 -8 -10 -10 -10 -5 0 6 -5 3 -10 -5 -8 -13 -10 -12 -10 3 0 10
-7 17 -17 17 -15 0 -16 -2 -3 -10 9 -6 10 -10 3 -10 -6 0 -18 6 -25 13 -7 7
-19 12 -25 11 -7 -1 -18 -2 -24 -3 -5 0 -8 -5 -5 -10 4 -5 -2 -8 -11 -6 -10 1
-17 8 -15 14 4 18 -16 12 -21 -6 -3 -13 -5 -12 -6 5 0 13 -5 21 -11 17 -5 -3
-6 -13 -3 -23 6 -15 5 -15 -10 -3 -11 9 -17 10 -17 2 0 -6 -5 -11 -11 -11 -5
0 -8 4 -5 8 3 5 -1 9 -9 9 -8 0 -12 -4 -9 -8 10 -16 -14 -18 -27 -2 -12 14
-12 16 0 8 10 -5 12 -4 7 3 -5 8 -13 9 -25 2 -12 -6 -22 -5 -29 2 -13 13 -35
1 -25 -15 4 -7 0 -6 -10 2 -14 11 -20 11 -32 1 -10 -9 -15 -9 -15 -1 0 6 5 11
11 11 5 0 7 5 4 10 -4 6 -14 1 -25 -12 -14 -18 -21 -20 -32 -10 -8 6 -18 9
-21 5 -4 -3 -7 -2 -7 3 0 5 -9 10 -20 11 -11 1 -18 -2 -15 -8 4 -5 1 -9 -4 -9
-6 0 -11 5 -11 10 0 6 -5 10 -11 10 -5 0 -7 -5 -3 -12 5 -7 2 -9 -8 -5 -9 3
-21 0 -27 -6 -8 -8 -11 -8 -11 0 0 6 -7 14 -16 17 -11 4 -15 2 -11 -7 3 -9 -2
-13 -16 -12 -12 2 -21 8 -19 15 2 11 0 11 -12 1 -11 -9 -16 -9 -22 0 -5 8 -3
9 6 4 8 -5 11 -4 7 2 -4 6 -15 13 -26 16 -15 3 -18 1 -14 -11 4 -10 2 -13 -5
-8 -8 5 -12 0 -12 -14 0 -17 -2 -19 -14 -8 -10 9 -11 15 -2 20 7 5 3 8 -9 9
l-20 0 20 10 20 9 -20 -3 c-11 -1 -20 -8 -20 -16 0 -8 -8 -19 -18 -25 -14 -8
-20 -8 -27 4 -9 13 -11 13 -20 0 -5 -8 -10 -10 -10 -5 0 6 -5 3 -10 -5 -8 -13
-10 -12 -10 3 0 10 -7 17 -17 17 -15 0 -16 -2 -3 -10 9 -6 10 -10 3 -10 -6 0
-18 6 -25 13 -7 7 -19 12 -25 11 -7 -1 -18 -2 -24 -3 -5 0 -8 -5 -5 -10 4 -5
-2 -8 -11 -6 -10 1 -17 8 -15 14 4 18 -16 12 -21 -6 -3 -13 -5 -12 -6 5 0 13
-5 21 -11 17 -5 -3 -6 -13 -3 -23 6 -14 4 -15 -9 -4 -12 9 -18 10 -23 2 -5 -8
-11 -7 -23 2 -12 10 -14 10 -8 1 4 -8 2 -13 -8 -13 -8 0 -18 5 -22 12 -5 7 -3
8 6 3 9 -5 11 -4 6 3 -5 9 -13 9 -26 2 -13 -7 -21 -7 -25 0 -7 12 -26 14 -24
3 3 -20 -2 -24 -16 -13 -12 10 -18 10 -30 0 -10 -9 -15 -9 -15 -1 0 6 5 11 11
11 5 0 7 5 4 11 -5 6 -13 3 -22 -10 -17 -25 -48 -29 -39 -5 5 14 4 15 -9 4 -8
-7 -15 -8 -15 -3 0 5 -9 9 -20 10 -11 1 -18 -2 -15 -8 4 -5 1 -9 -4 -9 -6 0
-11 5 -11 10 0 6 -5 10 -11 10 -5 0 -7 -5 -3 -12 5 -7 2 -9 -8 -5 -9 3 -21 0
-27 -6 -8 -8 -11 -8 -11 0 0 6 -7 14 -16 17 -11 4 -15 2 -11 -7 3 -9 -2 -13
-16 -12 -12 2 -21 8 -19 15 2 11 0 11 -12 1 -11 -9 -16 -9 -22 0 -5 8 -3 9 6
4 8 -5 11 -4 7 2 -4 6 -15 13 -26 16 -15 3 -18 1 -14 -11 4 -10 2 -13 -5 -8
-8 5 -12 0 -12 -14 0 -17 -2 -19 -14 -8 -10 9 -11 15 -2 20 7 5 3 8 -9 9 l-20
0 20 10 20 9 -20 -3 c-11 -1 -20 -8 -20 -14 0 -7 -5 -17 -12 -24 -10 -10 -16
-9 -28 1 -14 12 -18 11 -26 -1 -5 -8 -9 -9 -9 -4 0 6 -5 3 -10 -5 -8 -13 -10
-12 -10 3 0 10 -7 17 -17 17 -15 0 -16 -2 -3 -10 9 -6 10 -10 3 -10 -6 0 -18
6 -25 13 -7 7 -19 12 -25 11 -7 -1 -18 -2 -24 -3 -5 0 -8 -5 -5 -10 4 -5 -2
-8 -11 -6 -10 1 -17 8 -15 14 1 6 -2 11 -8 11 -5 0 -10 -8 -10 -17 0 -15 -2
-16 -9 -3 -6 8 -7 18 -4 24 3 5 1 6 -5 2 -6 -4 -8 -14 -5 -24 6 -14 4 -15 -9
-5 -8 7 -18 10 -22 6 -10 -11 -54 -15 -60 -5 -2 4 8 7 23 6 18 -1 28 3 28 12
0 10 -4 11 -13 3 -7 -6 -19 -9 -26 -6 -7 2 -21 0 -30 -4 -10 -6 -19 -5 -23 1
-8 14 -26 13 -23 -1 2 -6 -5 -13 -15 -14 -9 -2 -15 1 -11 6 8 13 -10 11 -25
-3 -11 -11 -12 -9 -7 9 4 13 2 24 -6 29 -7 4 -10 4 -6 -1 10 -11 -10 -45 -27
-45 -7 0 -20 6 -27 13 -17 15 -52 22 -43 8 3 -6 1 -11 -4 -11 -6 0 -11 5 -11
10 0 6 -5 10 -11 10 -5 0 -7 -5 -3 -12 5 -7 2 -9 -8 -5 -9 3 -21 0 -27 -6 -8
-8 -11 -8 -11 0 0 6 -7 14 -16 17 -12 4 -15 2 -10 -9 4 -11 0 -14 -17 -11 -12
2 -21 10 -19 17 2 10 0 10 -12 0 -11 -9 -16 -9 -22 0 -5 8 -3 9 6 4 8 -5 11
-4 7 2 -4 6 -15 13 -26 16 -15 3 -18 1 -14 -11 4 -10 2 -13 -5 -8 -8 5 -12 0
-12 -14 0 -17 -2 -19 -14 -8 -10 9 -11 15 -2 20 7 5 3 8 -9 9 l-20 0 20 10 20
9 -20 -3 c-11 -1 -20 -8 -20 -14 0 -7 -5 -17 -12 -24 -10 -10 -16 -9 -28 1
-14 12 -18 11 -26 -1 -5 -8 -9 -9 -9 -4 0 6 -5 3 -10 -5 -8 -13 -10 -12 -10 3
0 10 -7 17 -17 17 -15 0 -16 -2 -3 -10 9 -6 10 -10 3 -10 -6 0 -18 6 -25 13
-7 7 -19 12 -25 11 -7 -1 -18 -2 -24 -3 -5 0 -8 -5 -5 -10 4 -5 -2 -8 -11 -6
-10 1 -17 8 -15 14 1 6 -2 11 -8 11 -5 0 -10 -8 -10 -17 0 -15 -2 -16 -9 -3
-6 8 -7 18 -4 24 3 5 1 6 -5 2 -6 -4 -8 -14 -5 -24 6 -14 4 -15 -9 -5 -8 7
-18 10 -22 6 -10 -11 -54 -15 -60 -5 -2 4 8 7 23 6 18 -1 28 3 28 12 0 10 -4
11 -13 3 -7 -6 -19 -9 -26 -6 -7 2 -21 0 -30 -4 -10 -6 -19 -5 -23 1 -8 14
-26 13 -23 -1 2 -6 -5 -13 -15 -14 -9 -2 -15 1 -11 6 8 13 -10 11 -24 -3 -8
-8 -12 -9 -12 -1 0 6 7 18 15 27 14 13 13 15 -4 13 -11 -1 -18 -3 -16 -5 2 -3
0 -13 -6 -23 -11 -22 -32 -24 -51 -6 -17 15 -52 22 -43 8 3 -6 1 -11 -4 -11
-6 0 -11 5 -11 10 0 6 -5 10 -11 10 -5 0 -7 -6 -3 -12 6 -10 4 -10 -7 0 -15
14 -33 16 -24 3 3 -5 0 -13 -6 -17 -8 -4 -9 -3 -5 4 4 7 5 12 2 12 -2 0 -12 3
-22 7 -13 5 -16 3 -11 -10 5 -13 1 -16 -16 -13 -12 2 -21 9 -19 16 1 6 -1 9
-6 7 -15 -10 -53 28 -46 46 3 9 10 15 15 12 4 -3 6 -12 2 -20 -3 -8 0 -15 6
-15 6 0 10 3 10 8 -3 18 2 32 12 32 5 0 8 -4 4 -9 -3 -5 -1 -12 4 -15 5 -4 13
-1 17 6 5 7 10 3 17 -13 l9 -24 9 23 c4 12 13 22 20 22 6 0 9 -7 6 -15 -4 -8
-1 -17 5 -21 7 -4 8 -3 4 4 -4 7 -3 12 3 12 5 0 8 9 6 19 -3 15 1 18 12 14 12
-5 14 -3 8 7 -5 9 -4 11 4 6 9 -6 9 -11 0 -22 -10 -12 -8 -13 14 -5 18 7 27 7
31 -2 5 -9 7 -9 12 0 6 13 35 6 46 -11 5 -7 8 -7 8 2 0 9 7 11 20 7 16 -5 19
-3 14 12 -3 10 2 7 10 -7 8 -14 15 -20 16 -14 0 5 14 9 30 8 17 -1 33 2 36 7
9 15 24 10 24 -7 0 -14 2 -14 16 -3 14 12 14 14 -5 21 -25 9 -26 14 -5 22 8 3
12 2 9 -4 -3 -6 0 -11 7 -12 7 0 18 -2 24 -2 6 -1 20 -8 30 -16 10 -9 15 -10
10 -2 -10 16 25 16 43 0 12 -11 13 -9 7 7 -5 17 -3 16 15 -5 11 -14 18 -20 15
-14 -9 18 12 21 91 15 40 -4 85 -3 100 1 16 4 32 3 40 -4 9 -7 13 -7 13 1 0 7
5 9 10 6 6 -4 8 -12 4 -18 -3 -7 1 -4 10 7 15 19 41 13 29 -7 -4 -7 0 -6 10 2
11 9 17 10 17 2 0 -8 6 -8 18 -2 9 6 30 12 45 16 17 3 25 10 21 17 -4 7 -3 8
5 4 6 -4 9 -11 6 -16 -3 -5 -1 -11 4 -14 5 -4 13 -1 17 5 4 8 9 7 16 -2 8 -11
11 -11 15 -1 4 10 8 10 19 1 8 -6 14 -8 14 -3 0 5 5 2 10 -6 7 -11 10 -12 10
-2 0 9 7 11 20 7 16 -5 19 -3 13 11 -4 12 -3 15 5 10 7 -4 12 -15 13 -24 0 -9
3 -12 5 -6 2 5 18 9 34 8 17 -1 33 2 36 7 9 15 24 10 24 -7 0 -14 2 -14 16 -3
14 12 14 14 -5 21 -25 9 -26 14 -5 22 8 3 12 2 9 -4 -3 -6 0 -11 7 -12 7 0 18
-2 24 -2 6 -1 20 -8 30 -16 10 -9 15 -10 10 -2 -10 16 26 16 42 0 9 -9 12 -9
12 2 0 9 5 8 16 -6 8 -10 13 -14 10 -8 -7 14 18 26 38 18 26 -10 166 -9 169 1
2 6 11 4 20 -4 12 -9 17 -10 17 -2 0 7 5 9 10 6 6 -4 8 -12 4 -18 -3 -7 1 -4
10 7 15 19 41 13 29 -7 -4 -7 0 -6 10 2 11 9 17 10 17 2 0 -8 6 -8 18 -2 9 6
29 12 44 15 17 4 25 12 24 23 -4 23 -37 43 -43 26 -3 -7 -9 -13 -14 -13 -4 0
-5 7 -2 17 4 11 3 14 -5 9 -7 -4 -12 -13 -12 -21 0 -7 -7 -16 -16 -19 -8 -3
-12 -2 -9 4 3 6 1 10 -4 10 -6 0 -11 -4 -11 -10 0 -8 -28 -8 -50 0 -3 2 -9 2
-13 1 -5 -1 -5 4 -1 10 5 8 -4 10 -30 7 -20 -2 -36 0 -36 4 0 4 -5 8 -11 8 -5
0 -8 -3 -6 -7 3 -5 1 -17 -4 -28 -7 -18 -8 -18 -8 5 -1 14 -5 21 -9 15 -9 -13
-35 -19 -28 -6 3 5 -1 12 -10 15 -10 4 -13 2 -9 -7 4 -6 -1 -3 -11 8 -14 17
-16 18 -10 2 5 -16 1 -17 -56 -12 -35 4 -67 9 -72 13 -5 3 -7 -2 -3 -11 3 -9
2 -19 -3 -22 -6 -4 -10 1 -10 9 0 8 -4 18 -10 21 -5 3 -7 0 -4 -9 4 -11 0 -13
-15 -9 -11 3 -18 9 -15 14 8 14 -32 5 -52 -11 -13 -12 -18 -12 -21 -2 -6 17
-23 15 -39 -5 -13 -17 -14 -17 -8 0 3 9 2 17 -4 17 -6 0 -12 -5 -14 -11 -2 -5
-11 -7 -20 -4 -9 4 -15 12 -12 19 3 7 -2 13 -10 13 -8 0 -15 -3 -14 -6 2 -21
-4 -22 -18 -5 -13 15 -15 16 -10 2 3 -12 1 -15 -10 -11 -8 3 -20 1 -27 -5 -9
-8 -22 -6 -46 5 -27 13 -34 14 -41 3 -4 -7 -22 -13 -39 -12 -17 0 -31 -4 -31
-9 0 -7 -29 -7 -50 1 -3 2 -9 2 -13 1 -5 -1 -5 4 -1 10 5 8 -4 10 -30 7 -20
-2 -36 0 -36 4 0 4 -5 8 -11 8 -5 0 -8 -3 -6 -7 3 -5 1 -17 -4 -28 -7 -18 -8
-18 -8 5 -1 20 -3 22 -11 10 -5 -8 -10 -10 -10 -4 0 7 -9 14 -20 17 -13 3 -18
1 -14 -6 3 -7 -2 -3 -12 8 -14 17 -16 17 -11 2 6 -16 1 -17 -54 -13 -33 3 -65
9 -71 12 -8 5 -9 1 -4 -11 7 -18 6 -18 -14 0 -17 15 -20 16 -15 3 5 -13 2 -15
-14 -11 -11 3 -19 8 -16 12 8 13 -33 5 -51 -10 -13 -11 -18 -11 -21 -1 -6 17
-23 15 -40 -5 -14 -17 -14 -17 -9 0 3 9 1 17 -4 17 -6 0 -10 -5 -10 -11 0 -6
-9 -8 -22 -4 -13 4 -27 8 -33 9 -5 0 -16 8 -23 16 -12 13 -13 13 -8 -2 3 -12
1 -15 -10 -11 -8 3 -20 1 -27 -5 -9 -8 -22 -6 -46 5 -27 13 -34 14 -41 3 -4
-7 -22 -13 -39 -12 -17 0 -31 -4 -31 -9 0 -7 -29 -7 -50 1 -3 2 -9 2 -13 1 -5
-1 -5 4 -2 10 5 7 -1 10 -18 7 -29 -3 -37 7 -892 1162 -137 184 -325 439 -418
565 -94 127 -174 235 -179 241 -5 6 -120 569 -257 1250 -555 2762 -672 3346
-669 3349 2 2 37 -50 78 -114 41 -65 247 -383 457 -707 l382 -589 123 -18 c68
-9 182 -25 253 -36 72 -11 195 -29 275 -41 80 -12 201 -30 270 -40 69 -10 238
-35 375 -55 138 -20 306 -45 375 -55 69 -10 190 -28 270 -40 80 -12 201 -30
270 -40 69 -10 222 -32 340 -49 118 -17 230 -34 248 -37 l32 -5 0 2187 c0
1203 2 2185 4 2183 4 -4 44 -179 266 -1164 97 -433 117 -515 124 -522 3 -3
159 45 348 107 189 62 487 159 663 217 176 57 442 144 590 193 149 49 466 152
705 230 239 78 487 159 550 180 63 21 311 102 550 180 239 78 473 155 520 170
47 16 301 99 565 185 264 86 539 176 610 199 97 33 133 41 142 32 6 -6 194
-249 418 -541z m-13650 24 c20 -4 -71 -14 -95 -10 -21 4 -22 5 -6 11 16 5 74
5 101 -1z m12861 -8611 c3 -4 -1 -5 -10 -4 -8 1 -18 5 -22 8 -3 4 1 5 10 4 8
-1 18 -5 22 -8z m840 0 c3 -4 -1 -5 -10 -4 -8 1 -18 5 -22 8 -3 4 1 5 10 4 8
-1 18 -5 22 -8z m-6422 -16 c3 -5 -1 -9 -9 -9 -8 0 -12 4 -9 9 3 4 7 8 9 8 2
0 6 -4 9 -8z m9257 -15 c-10 -9 -11 -8 -5 6 3 10 9 15 12 12 3 -3 0 -11 -7
-18z m-3881 -77 c0 -5 -5 -10 -11 -10 -5 0 -7 5 -4 10 3 6 8 10 11 10 2 0 4
-4 4 -10z m674 2 c3 -5 -1 -9 -9 -9 -8 0 -15 4 -15 9 0 4 4 8 9 8 6 0 12 -4
15 -8z m-12354 -6501 c251 -9 277 -15 338 -85 45 -51 56 -102 54 -246 -11
-912 -25 -1575 -33 -1616 -15 -76 -57 -136 -115 -165 l-49 -24 -370 3 c-203 2
-530 6 -725 11 -303 6 -361 10 -395 25 -58 25 -102 72 -122 130 -15 48 -16
108 -4 896 7 465 17 867 22 894 18 96 79 166 163 187 34 8 884 1 1236 -10z
m2320 -41 c224 -8 254 -15 312 -77 51 -53 58 -94 58 -339 l0 -224 -197 0
c-109 0 -214 3 -233 6 l-35 6 4 169 c3 192 -1 234 -30 249 -23 13 -718 30
-768 19 -18 -4 -39 -13 -45 -19 -12 -12 -32 -621 -21 -677 3 -18 15 -38 26
-44 14 -7 202 -14 542 -20 320 -6 541 -14 572 -21 28 -6 67 -22 87 -36 44 -29
85 -105 93 -172 3 -25 2 -209 -3 -410 -8 -341 -10 -368 -30 -410 -34 -74 -76
-110 -152 -130 -53 -14 -1332 5 -1416 21 -74 14 -136 57 -161 110 -31 66 -36
125 -28 331 l8 188 229 0 230 0 -7 -178 c-8 -197 -1 -245 38 -256 32 -9 748
-20 779 -13 18 5 30 17 37 39 5 19 11 178 13 360 3 300 2 329 -14 345 -26 25
-115 32 -458 33 -168 1 -391 5 -495 9 -213 9 -247 19 -303 86 -47 58 -52 91
-51 346 0 352 12 556 34 599 31 62 75 99 145 121 28 9 926 1 1240 -11z m3005
-50 c286 -5 534 -13 551 -18 87 -27 135 -74 159 -156 14 -46 14 -142 0 -905
-9 -539 -19 -869 -26 -895 -24 -89 -82 -144 -174 -164 -47 -10 -530 -5 -1404
14 l-264 6 6 367 c4 201 12 683 19 1070 l12 704 300 -7 c166 -4 535 -11 821
-16z m2105 -35 c223 -3 487 -8 588 -11 l182 -6 0 -99 0 -99 -262 5 c-145 3
-390 7 -544 10 l-282 5 -6 -152 c-3 -84 -7 -250 -9 -370 l-2 -216 180 -6 c99
-3 314 -9 478 -12 l297 -6 0 -101 0 -100 -302 7 c-167 3 -382 7 -478 8 l-175
3 -6 -210 c-3 -115 -7 -294 -8 -396 l-1 -186 287 -6 c157 -4 383 -7 502 -7
119 0 246 -3 284 -7 l67 -6 0 -100 0 -99 -202 6 c-112 3 -381 8 -598 11 -217
3 -491 8 -609 11 l-214 6 7 247 c3 135 11 534 16 886 5 352 12 723 16 824 l6
184 192 -7 c105 -3 373 -8 596 -11z m1385 -25 l151 0 122 -372 c285 -866 486
-1468 488 -1465 2 2 152 401 334 887 182 487 334 894 339 906 9 20 14 20 228
17 120 -2 223 -5 230 -6 7 -1 -24 -92 -83 -237 -51 -129 -243 -607 -424 -1061
l-331 -826 -287 4 c-158 3 -292 6 -297 7 -6 2 -16 21 -23 42 -7 22 -22 62 -32
89 -10 28 -48 131 -84 230 -136 378 -639 1771 -644 1784 -5 12 9 13 79 8 46
-4 152 -7 234 -7z"/>
<path d="M15926 16658 c3 -4 11 -5 19 -1 21 7 19 12 -4 10 -11 0 -18 -5 -15
-9z"/>
<path d="M18222 16661 c2 -18 -3 -31 -12 -31 -5 0 -6 7 -3 17 4 11 3 14 -5 9
-7 -4 -12 -13 -12 -21 0 -7 -7 -16 -16 -19 -10 -4 -13 -2 -7 7 11 18 13 38 2
31 -5 -3 -7 -8 -5 -12 2 -4 -3 -13 -11 -21 -13 -12 -14 -11 -8 9 5 15 4 20 -4
16 -6 -4 -11 -3 -11 1 0 5 -10 9 -22 10 l-23 1 23 -10 c12 -6 22 -14 22 -19 0
-12 -29 -4 -51 14 -21 18 -34 22 -25 8 3 -5 -3 -11 -14 -14 -11 -3 -20 -1 -20
4 0 5 -5 9 -11 9 -5 0 -8 -3 -6 -7 3 -5 1 -17 -4 -28 -7 -18 -8 -18 -8 5 -1
14 -5 21 -9 15 -9 -13 -35 -19 -28 -6 3 5 -1 12 -10 15 -8 3 -13 2 -10 -3 3
-5 -9 -8 -27 -8 -18 1 -38 -2 -45 -7 -7 -4 -12 -3 -12 2 0 6 -16 12 -35 14
-26 3 -34 1 -31 -9 3 -7 1 -15 -4 -18 -6 -4 -10 1 -10 9 0 8 -4 18 -10 21 -6
4 -7 -1 -3 -12 6 -17 5 -17 -13 -1 -22 19 -44 19 -70 -2 -13 -12 -18 -12 -21
-2 -6 17 -23 15 -39 -5 -13 -17 -14 -17 -8 0 6 18 -10 24 -21 7 -8 -13 -35 -1
-29 14 3 7 -2 13 -10 13 -8 0 -15 -3 -14 -6 2 -21 -4 -22 -18 -5 -14 17 -15
17 -10 1 4 -11 2 -16 -5 -12 -5 4 -18 3 -27 -1 -9 -4 -21 -8 -27 -8 -10 -1
-15 -25 -7 -39 2 -4 10 -3 18 4 10 8 14 8 14 0 0 -6 5 -11 10 -11 6 0 10 8 10
18 1 16 1 16 11 -1 6 -9 14 -15 20 -12 5 4 9 1 9 -6 0 -7 11 -2 25 11 l25 23
9 -24 c5 -13 10 -19 10 -13 1 5 15 9 31 8 17 -1 33 2 36 7 9 15 24 10 24 -7 0
-14 2 -14 16 -3 14 12 14 14 -5 21 -25 9 -26 14 -5 22 8 3 13 2 10 -3 -7 -10
22 -23 34 -16 5 3 11 1 14 -4 3 -5 15 -7 26 -4 11 3 27 0 35 -7 12 -10 15 -10
15 1 0 8 6 6 16 -7 8 -10 13 -14 10 -8 -7 14 24 29 33 17 3 -4 43 -8 89 -8 61
0 82 3 82 13 0 7 5 10 10 7 6 -4 8 -10 6 -14 -3 -4 1 -8 9 -8 8 0 15 4 15 9 0
5 5 6 10 3 6 -4 7 -12 3 -18 -3 -7 3 -3 15 7 20 18 27 15 23 -8 -1 -5 5 -4 13
4 11 8 16 9 16 1 0 -8 6 -8 18 -2 9 6 29 12 44 15 14 3 25 12 24 18 -3 24 -17
38 -29 31 -9 -5 -8 -2 0 8 10 13 10 16 -2 16 -7 0 -14 -3 -13 -6z"/>
<path d="M19062 16661 c2 -18 -3 -31 -12 -31 -5 0 -6 7 -3 17 4 11 3 14 -5 9
-7 -4 -12 -13 -12 -21 0 -7 -7 -16 -16 -19 -8 -3 -12 -2 -9 4 3 6 2 10 -4 10
-5 0 -12 -6 -15 -12 -3 -7 -3 -2 0 11 4 16 3 21 -5 17 -6 -4 -11 -3 -11 1 0 5
-10 9 -22 10 l-23 1 23 -10 c12 -6 22 -14 22 -19 0 -12 -29 -4 -50 14 -11 9
-20 13 -20 8 0 -5 -9 -11 -20 -14 -11 -3 -20 -1 -20 4 0 5 -5 9 -11 9 -5 0 -8
-3 -6 -7 3 -5 1 -17 -4 -28 -7 -18 -8 -18 -8 5 -1 14 -5 21 -9 15 -9 -13 -35
-19 -28 -6 3 5 -1 12 -10 15 -8 3 -13 2 -10 -2 3 -5 -1 -9 -8 -9 -8 0 -12 7
-9 16 3 12 0 11 -11 -3 -9 -11 -19 -17 -22 -13 -4 4 -13 2 -21 -4 -8 -7 -13
-8 -13 -1 0 5 -16 12 -35 14 -26 3 -34 1 -31 -9 3 -7 1 -15 -4 -18 -6 -4 -10
1 -10 9 0 8 -5 18 -12 22 -8 5 -9 2 -4 -11 6 -18 6 -18 -11 -2 -19 17 -63 13
-63 -5 0 -6 7 -7 16 -4 8 3 13 2 10 -3 -7 -10 22 -23 34 -16 5 3 11 1 14 -4 3
-5 15 -7 26 -4 11 3 27 0 35 -7 12 -10 15 -10 15 1 0 8 6 6 16 -7 8 -10 13
-14 10 -8 -7 14 24 29 33 17 3 -4 43 -8 89 -8 61 0 82 3 82 13 0 7 5 10 10 7
6 -4 8 -10 6 -14 -3 -4 1 -8 9 -8 8 0 15 5 15 11 0 6 5 5 12 -2 9 -9 15 -9 26
1 12 9 16 9 19 -1 3 -6 9 -10 14 -6 5 3 9 0 9 -7 0 -9 4 -9 15 1 8 6 18 9 22
7 11 -7 47 15 51 31 1 8 -7 16 -18 19 -15 4 -18 9 -10 18 7 8 5 12 -5 12 -7 0
-14 -3 -13 -6z"/>
<path d="M19283 16665 c10 -12 -22 -45 -38 -38 -8 2 -12 10 -9 17 3 7 -2 13
-10 13 -8 0 -13 -4 -10 -9 3 -4 1 -8 -5 -8 -5 0 -13 5 -17 11 -4 8 -9 7 -15
-2 -4 -8 -13 -15 -19 -15 -5 -1 -12 -3 -15 -4 -3 -1 -11 -3 -17 -4 -7 0 -13
-8 -14 -16 -1 -25 7 -32 22 -19 10 8 14 8 14 0 0 -6 5 -11 10 -11 6 0 10 8 10
18 1 15 2 15 12 -3 11 -19 11 -19 19 0 7 18 8 18 8 -4 1 -18 4 -21 14 -12 8 6
18 7 22 3 5 -4 5 -2 1 5 -3 6 -2 14 4 18 6 3 14 -4 19 -17 6 -13 10 -18 10
-12 1 6 13 10 29 9 15 -1 35 2 44 6 10 6 18 4 21 -4 3 -8 8 -9 16 -1 8 7 2 14
-24 24 -19 8 -35 17 -35 22 0 14 -22 9 -36 -9 -13 -16 -13 -15 -4 9 7 20 6 29
-3 34 -7 4 -9 3 -4 -1z"/>
<path d="M23049 16653 c-13 -17 -13 -17 6 -3 11 8 22 16 24 17 2 2 0 3 -6 3
-6 0 -17 -8 -24 -17z"/>
<path d="M23270 16655 c-11 -13 -10 -14 4 -9 9 3 16 10 16 15 0 13 -6 11 -20
-6z"/>
<path d="M23404 16656 c5 -16 4 -17 -9 -6 -12 10 -15 10 -15 -5 0 -10 -5 -15
-14 -12 -7 3 -19 0 -25 -6 -13 -13 -43 -19 -36 -7 8 13 -13 22 -35 15 -12 -4
-17 -12 -14 -23 5 -15 4 -15 -6 1 -6 9 -8 22 -5 27 3 6 1 10 -4 10 -6 0 -11
-7 -11 -15 0 -8 -4 -15 -9 -15 -5 0 -8 8 -6 18 1 9 0 11 -2 5 -3 -7 -8 -13
-13 -13 -4 0 -11 -7 -14 -16 -5 -12 -2 -15 10 -10 13 5 14 3 6 -6 -16 -20 158
-18 176 2 8 8 11 9 7 3 -3 -7 -1 -13 4 -13 6 0 11 5 11 12 0 6 7 3 16 -8 11
-14 17 -16 21 -6 4 10 8 10 19 1 11 -9 18 -8 31 2 9 8 14 9 10 3 -8 -13 86
-14 99 -1 12 11 42 8 47 -5 4 -10 6 -10 6 0 1 6 9 12 19 12 14 0 14 -2 3 -9
-10 -7 -7 -9 12 -8 14 1 23 5 20 10 -9 14 10 7 21 -9 10 -13 12 -12 13 7 2 26
19 46 30 35 4 -4 2 -11 -5 -15 -10 -6 -10 -11 3 -21 12 -10 15 -10 15 1 0 11
2 11 10 -1 8 -12 10 -12 10 -1 0 9 4 10 13 4 13 -11 83 -11 93 0 4 4 14 1 22
-6 13 -9 14 -9 8 1 -4 6 -2 12 3 12 6 0 11 -4 11 -10 0 -12 22 -9 32 5 5 6 8
5 8 -3 0 -9 7 -11 21 -7 16 6 20 4 13 -6 -6 -11 -5 -12 7 -2 8 7 45 10 94 9
63 -2 83 1 93 13 8 9 11 10 7 4 -3 -7 -1 -13 4 -13 6 0 11 5 11 12 0 6 7 3 16
-8 11 -14 17 -16 21 -6 4 10 8 10 19 1 11 -9 18 -8 31 2 9 8 14 9 10 3 -8 -13
86 -14 99 -1 11 11 72 9 96 -4 15 -8 19 -8 14 0 -11 17 5 13 18 -5 10 -13 12
-12 13 7 2 26 19 46 30 35 4 -4 2 -11 -5 -15 -10 -6 -10 -11 3 -21 12 -10 15
-10 15 1 0 11 2 11 10 -1 8 -12 10 -12 10 -1 0 9 4 10 13 4 13 -10 84 -10 94
1 3 3 13 0 21 -7 13 -9 14 -9 8 1 -4 6 -2 12 3 12 6 0 11 -4 11 -9 0 -5 18 -7
40 -6 26 2 38 -1 33 -8 -4 -6 -1 -7 8 -1 8 5 56 9 107 9 66 0 95 4 101 13 7
11 9 10 14 -2 4 -9 14 -16 22 -16 9 0 14 4 11 8 -3 5 1 9 9 9 8 0 12 -4 9 -9
-8 -13 10 -10 25 5 11 10 12 9 6 -1 -6 -11 1 -12 29 -8 23 4 36 2 36 -5 0 -7
10 -5 25 5 28 19 122 19 140 1 6 -6 9 -9 8 -7 -1 2 2 15 7 28 8 19 6 24 -6 24
-9 0 -12 5 -8 13 6 9 4 9 -8 -1 -11 -9 -18 -10 -23 -2 -10 17 -25 12 -35 -12
-6 -17 -9 -18 -9 -6 -1 9 -6 20 -13 24 -7 5 -9 2 -5 -9 4 -12 1 -15 -15 -12
-11 3 -28 0 -37 -5 -12 -7 -13 -9 -2 -10 8 0 12 -2 9 -5 -3 -3 -17 1 -31 8
-15 8 -24 17 -20 20 3 4 -2 7 -12 7 -10 0 -23 -7 -30 -17 -9 -13 -14 -13 -20
-3 -5 9 -4 11 3 6 8 -4 12 0 12 11 -1 16 -3 15 -19 -4 -15 -18 -20 -20 -25 -8
-3 8 -10 15 -16 15 -6 0 -8 -6 -4 -12 6 -10 5 -10 -8 -1 -8 7 -19 9 -23 5 -5
-4 -5 -2 -1 5 3 6 2 14 -4 18 -5 3 -10 -1 -10 -10 0 -9 -6 -15 -12 -12 -7 2
-22 -3 -32 -12 -11 -9 -16 -11 -13 -4 5 7 -5 14 -25 19 -18 4 -27 9 -20 11 6
3 12 9 12 15 0 6 -6 6 -15 -2 -11 -9 -12 -17 -4 -32 8 -15 8 -19 0 -14 -6 4
-11 1 -11 -6 0 -10 -2 -10 -9 1 -5 8 -7 20 -4 28 3 7 0 13 -6 13 -6 0 -11 -6
-11 -14 0 -17 -48 -16 -55 2 -6 15 -26 16 -22 1 1 -6 -4 -14 -12 -17 -9 -3
-11 0 -6 9 5 8 5 11 1 7 -4 -3 -21 -2 -37 2 -16 5 -28 6 -25 2 2 -4 -2 -13
-10 -20 -8 -7 -14 -8 -14 -3 0 5 -8 9 -17 9 -10 0 -27 3 -37 7 -13 6 -17 5
-13 -2 4 -7 0 -10 -9 -9 -8 1 -20 9 -25 17 -5 8 -9 10 -9 4 0 -5 -14 -11 -30
-12 -17 -1 -28 2 -25 7 3 5 0 12 -6 16 -7 4 -9 3 -5 -4 3 -6 2 -13 -3 -16 -5
-4 -12 -2 -16 4 -10 17 -25 11 -35 -12 -6 -17 -9 -18 -9 -6 -1 9 -6 20 -13 24
-7 5 -9 2 -5 -9 4 -12 1 -15 -15 -12 -11 3 -28 0 -37 -5 -12 -7 -13 -9 -2 -10
8 0 12 -2 9 -5 -3 -3 -17 1 -31 8 -15 8 -24 17 -20 20 3 4 11 2 18 -3 8 -6 18
-5 31 5 18 13 18 14 -5 8 -17 -4 -28 0 -39 13 -13 16 -14 16 -9 2 4 -12 1 -18
-10 -18 -9 0 -21 -7 -28 -17 -9 -13 -14 -13 -20 -3 -5 9 -4 11 3 6 8 -4 12 0
12 11 -1 16 -3 15 -20 -6 -11 -13 -20 -18 -20 -11 0 7 -7 10 -16 6 -8 -3 -13
-2 -10 2 2 4 -3 16 -11 27 -15 19 -15 19 -9 1 5 -16 4 -17 -9 -6 -12 10 -15
10 -15 -5 0 -9 -6 -15 -12 -12 -7 2 -22 -3 -32 -12 -11 -9 -16 -11 -13 -5 4 7
-3 14 -17 18 -33 8 -56 -2 -50 -22 5 -15 4 -14 -6 1 -6 9 -8 22 -5 27 3 6 1
10 -4 10 -6 0 -11 -6 -11 -14 0 -17 -48 -16 -55 2 -6 15 -26 16 -22 1 1 -6 -4
-14 -12 -17 -8 -2 -11 0 -7 6 3 6 -9 12 -29 14 -23 3 -32 1 -25 -6 13 -13 13
-26 -1 -26 -5 0 -7 5 -4 10 4 7 -6 10 -28 8 -19 -1 -46 6 -60 15 -21 13 -28
14 -39 4 -14 -13 -82 -17 -94 -4 -13 13 -24 8 -34 -15 -6 -17 -9 -18 -9 -6 -1
9 -6 20 -13 24 -7 5 -9 2 -5 -9 4 -12 1 -15 -14 -12 -27 5 -55 -5 -39 -15 8
-5 7 -9 -5 -13 -10 -4 -14 -3 -10 4 4 6 -2 13 -14 16 -11 3 -18 9 -15 15 4 5
11 5 18 -1 9 -8 18 -6 32 4 18 13 18 14 -5 8 -17 -4 -28 0 -39 13 -13 16 -14
16 -9 2 4 -12 1 -18 -10 -18 -9 0 -21 -7 -28 -17 -9 -13 -14 -13 -20 -3 -5 9
-4 11 3 6 7 -4 12 -1 12 10 0 14 -2 14 -16 3 -16 -13 -56 -21 -49 -10 2 4 -4
15 -12 26 -15 19 -15 19 -9 1z m422 -28 c3 -4 -1 -5 -10 -4 -8 1 -18 5 -22 8
-3 4 1 5 10 4 8 -1 18 -5 22 -8z"/>
<path d="M23889 16653 c-13 -17 -13 -17 6 -3 11 8 22 16 24 17 2 2 0 3 -6 3
-6 0 -17 -8 -24 -17z"/>
<path d="M24110 16655 c-11 -13 -10 -14 4 -9 9 3 16 10 16 15 0 13 -6 11 -20
-6z"/>
<path d="M24735 16660 c-4 -6 -11 -7 -17 -4 -7 4 -8 2 -4 -5 6 -9 12 -9 24 1
10 7 19 14 21 15 2 2 -1 3 -7 3 -6 0 -14 -5 -17 -10z"/>
<path d="M25080 16661 c0 -6 4 -12 8 -15 5 -3 9 1 9 9 0 8 -4 15 -9 15 -4 0
-8 -4 -8 -9z"/>
<path d="M25575 16660 c-4 -6 -11 -8 -16 -5 -5 4 -9 1 -9 -4 0 -15 11 -13 34
4 11 8 15 15 9 15 -7 0 -15 -5 -18 -10z"/>
<path d="M25920 16661 c0 -6 4 -12 8 -15 5 -3 9 1 9 9 0 8 -4 15 -9 15 -4 0
-8 -4 -8 -9z"/>
<path d="M26415 16660 c-4 -6 -11 -8 -16 -5 -5 4 -9 1 -9 -4 0 -15 11 -13 34
4 11 8 15 15 9 15 -7 0 -15 -5 -18 -10z"/>
<path d="M15588 16648 c12 -6 22 -15 22 -20 0 -5 5 -6 10 -3 6 3 10 11 10 16
0 6 -4 7 -10 4 -5 -3 -10 -2 -10 2 0 5 -10 9 -22 10 l-23 1 23 -10z"/>
<path d="M15856 16648 c3 -4 9 -8 15 -8 5 0 9 4 9 8 0 5 -7 9 -15 9 -8 0 -12
-4 -9 -9z"/>
<path d="M16428 16648 c12 -6 22 -15 22 -20 0 -5 5 -6 10 -3 6 3 10 11 10 16
0 6 -4 7 -10 4 -5 -3 -10 -2 -10 2 0 5 -10 9 -22 10 l-23 1 23 -10z"/>
<path d="M17268 16648 c12 -6 22 -15 22 -20 0 -5 5 -6 10 -3 6 3 10 11 10 16
0 6 -4 7 -10 4 -5 -3 -10 -2 -10 2 0 5 -10 9 -22 10 l-23 1 23 -10z"/>
<path d="M17905 16650 c-3 -5 -1 -10 4 -10 6 0 11 5 11 10 0 6 -2 10 -4 10 -3
0 -8 -4 -11 -10z"/>
<path d="M18344 16648 c3 -12 1 -15 -10 -11 -8 3 -20 1 -27 -5 -6 -6 -16 -11
-22 -11 -5 -1 -10 -7 -11 -13 -1 -23 7 -29 22 -17 10 8 14 8 14 0 0 -6 5 -11
10 -11 6 0 10 8 10 18 1 15 2 15 12 -3 11 -19 11 -19 19 0 7 18 8 18 8 -4 1
-18 4 -21 14 -12 8 6 18 7 22 3 5 -4 5 -2 1 5 -3 6 -2 14 4 18 6 3 14 -4 19
-17 6 -13 10 -18 10 -12 1 5 15 9 31 8 17 -1 33 2 36 7 9 15 24 10 24 -7 0
-14 3 -14 15 -4 14 11 11 15 -17 29 -18 8 -34 19 -36 23 -6 13 -24 9 -38 -9
-13 -17 -14 -17 -8 0 6 18 -10 24 -21 7 -8 -13 -35 -1 -29 14 3 7 -2 13 -10
13 -8 0 -15 -3 -14 -6 2 -21 -4 -22 -18 -5 -13 15 -15 16 -10 2z"/>
<path d="M19005 16651 c-3 -5 -1 -12 5 -16 5 -3 10 1 10 9 0 18 -6 21 -15 7z"/>
<path d="M21525 16651 c-3 -5 -1 -12 5 -16 5 -3 10 1 10 9 0 18 -6 21 -15 7z"/>
<path d="M22306 16648 c3 -4 9 -8 15 -8 5 0 9 4 9 8 0 5 -7 9 -15 9 -8 0 -12
-4 -9 -9z"/>
<path d="M22365 16651 c-3 -5 -1 -12 5 -16 5 -3 10 1 10 9 0 18 -6 21 -15 7z"/>
<path d="M22464 16652 c4 -3 14 -7 22 -8 9 -1 13 0 10 4 -4 3 -14 7 -22 8 -9
1 -13 0 -10 -4z"/>
<path d="M23304 16652 c4 -3 14 -7 22 -8 9 -1 13 0 10 4 -4 3 -14 7 -22 8 -9
1 -13 0 -10 -4z"/>
<path d="M24051 16644 c0 -11 3 -14 6 -6 3 7 2 16 -1 19 -3 4 -6 -2 -5 -13z"/>
<path d="M24144 16652 c4 -3 14 -7 22 -8 9 -1 13 0 10 4 -4 3 -14 7 -22 8 -9
1 -13 0 -10 -4z"/>
<path d="M24640 16644 c0 -8 5 -12 10 -9 6 4 8 11 5 16 -9 14 -15 11 -15 -7z"/>
<path d="M24891 16644 c0 -11 3 -14 6 -6 3 7 2 16 -1 19 -3 4 -6 -2 -5 -13z"/>
<path d="M24984 16652 c4 -3 14 -7 22 -8 9 -1 13 0 10 4 -4 3 -14 7 -22 8 -9
1 -13 0 -10 -4z"/>
<path d="M25731 16644 c0 -11 3 -14 6 -6 3 7 2 16 -1 19 -3 4 -6 -2 -5 -13z"/>
<path d="M25826 16648 c3 -5 10 -6 15 -3 13 9 11 12 -6 12 -8 0 -12 -4 -9 -9z"/>
<path d="M15748 16643 c6 -2 18 -2 25 0 6 3 1 5 -13 5 -14 0 -19 -2 -12 -5z"/>
<path d="M16588 16643 c6 -2 18 -2 25 0 6 3 1 5 -13 5 -14 0 -19 -2 -12 -5z"/>
<path d="M17428 16643 c6 -2 18 -2 25 0 6 3 1 5 -13 5 -14 0 -19 -2 -12 -5z"/>
<path d="M18278 16643 c7 -3 16 -2 19 1 4 3 -2 6 -13 5 -11 0 -14 -3 -6 -6z"/>
<path d="M19118 16643 c7 -3 16 -2 19 1 4 3 -2 6 -13 5 -11 0 -14 -3 -6 -6z"/>
<path d="M21872 16633 c7 -9 16 -10 29 -2 11 5 25 7 32 3 7 -4 8 -3 4 2 -5 5
-23 9 -42 9 -25 0 -31 -3 -23 -12z"/>
<path d="M25250 16641 c-14 -4 -20 -10 -14 -14 6 -3 20 0 30 8 21 16 20 16
-16 6z"/>
<path d="M26090 16641 c-14 -4 -20 -10 -14 -14 6 -3 20 0 30 8 21 16 20 16
-16 6z"/>
<path d="M15808 16553 c7 -3 16 -2 19 1 4 3 -2 6 -13 5 -11 0 -14 -3 -6 -6z"/>
<path d="M16220 16549 c0 -5 5 -7 10 -4 6 3 10 8 10 11 0 2 -4 4 -10 4 -5 0
-10 -5 -10 -11z"/>
<path d="M16648 16553 c7 -3 16 -2 19 1 4 3 -2 6 -13 5 -11 0 -14 -3 -6 -6z"/>
<path d="M17060 16549 c0 -5 5 -7 10 -4 6 3 10 8 10 11 0 2 -4 4 -10 4 -5 0
-10 -5 -10 -11z"/>
<path d="M17488 16553 c7 -3 16 -2 19 1 4 3 -2 6 -13 5 -11 0 -14 -3 -6 -6z"/>
<path d="M17900 16549 c0 -5 5 -7 10 -4 6 3 10 8 10 11 0 2 -4 4 -10 4 -5 0
-10 -5 -10 -11z"/>
<path d="M21836 16548 c3 -4 9 -8 15 -8 5 0 9 4 9 8 0 5 -7 9 -15 9 -8 0 -12
-4 -9 -9z"/>
<path d="M22676 16548 c3 -4 9 -8 15 -8 5 0 9 4 9 8 0 5 -7 9 -15 9 -8 0 -12
-4 -9 -9z"/>
<path d="M22745 16550 c3 -5 8 -10 11 -10 2 0 4 5 4 10 0 6 -5 10 -11 10 -5 0
-7 -4 -4 -10z"/>
<path d="M23585 16550 c3 -5 8 -10 11 -10 2 0 4 5 4 10 0 6 -5 10 -11 10 -5 0
-7 -4 -4 -10z"/>
<path d="M24270 16553 c0 -6 8 -17 18 -24 16 -13 16 -13 2 6 -8 11 -16 22 -17
24 -2 2 -3 0 -3 -6z"/>
<path d="M24425 16550 c3 -5 8 -10 11 -10 2 0 4 5 4 10 0 6 -5 10 -11 10 -5 0
-7 -4 -4 -10z"/>
<path d="M25650 16548 c0 -4 7 -8 15 -8 8 0 15 4 15 8 0 5 -7 9 -15 9 -8 0
-15 -4 -15 -9z"/>
<path d="M17935 16540 c3 -5 8 -10 11 -10 2 0 4 5 4 10 0 6 -5 10 -11 10 -5 0
-7 -4 -4 -10z"/>
<path d="M18775 16540 c3 -5 8 -10 11 -10 2 0 4 5 4 10 0 6 -5 10 -11 10 -5 0
-7 -4 -4 -10z"/>
<path d="M22135 16540 c3 -5 8 -10 11 -10 2 0 4 5 4 10 0 6 -5 10 -11 10 -5 0
-7 -4 -4 -10z"/>
<path d="M22975 16540 c3 -5 8 -10 11 -10 2 0 4 5 4 10 0 6 -5 10 -11 10 -5 0
-7 -4 -4 -10z"/>
<path d="M23815 16540 c3 -5 8 -10 11 -10 2 0 4 5 4 10 0 6 -5 10 -11 10 -5 0
-7 -4 -4 -10z"/>
<path d="M24655 16540 c3 -5 8 -10 11 -10 2 0 4 5 4 10 0 6 -5 10 -11 10 -5 0
-7 -4 -4 -10z"/>
<path d="M25490 16540 c0 -5 5 -10 10 -10 6 0 10 5 10 10 0 6 -4 10 -10 10 -5
0 -10 -4 -10 -10z"/>
<path d="M26330 16540 c0 -5 5 -10 10 -10 6 0 10 5 10 10 0 6 -4 10 -10 10 -5
0 -10 -4 -10 -10z"/>
<path d="M16315 16530 c3 -5 8 -10 11 -10 2 0 4 5 4 10 0 6 -5 10 -11 10 -5 0
-7 -4 -4 -10z"/>
<path d="M17155 16530 c3 -5 8 -10 11 -10 2 0 4 5 4 10 0 6 -5 10 -11 10 -5 0
-7 -4 -4 -10z"/>
<path d="M17995 16530 c3 -5 8 -10 11 -10 2 0 4 5 4 10 0 6 -5 10 -11 10 -5 0
-7 -4 -4 -10z"/>
<path d="M18835 16530 c3 -5 8 -10 11 -10 2 0 4 5 4 10 0 6 -5 10 -11 10 -5 0
-7 -4 -4 -10z"/>
<path d="M21485 16530 c4 -6 11 -8 16 -5 14 9 11 15 -7 15 -8 0 -12 -5 -9 -10z"/>
<path d="M22325 16530 c4 -6 11 -8 16 -5 14 9 11 15 -7 15 -8 0 -12 -5 -9 -10z"/>
<path d="M23165 16530 c4 -6 11 -8 16 -5 14 9 11 15 -7 15 -8 0 -12 -5 -9 -10z"/>
<path d="M24005 16530 c4 -6 11 -8 16 -5 14 9 11 15 -7 15 -8 0 -12 -5 -9 -10z"/>
<path d="M9371 9830 c-38 -9 -49 -22 -55 -65 -6 -36 -26 -1185 -26 -1447 0
-187 0 -188 24 -203 21 -14 83 -17 424 -22 l399 -6 16 24 c14 21 18 96 26 514
6 270 11 639 13 822 3 321 2 333 -17 352 -19 19 -37 21 -330 26 -171 3 -339 7
-375 9 -36 2 -80 0 -99 -4z"/>
<path d="M14916 9538 c-13 -469 -27 -1521 -19 -1528 4 -4 204 -11 443 -15 371
-5 438 -4 454 8 17 13 21 33 27 153 14 250 30 1500 20 1527 -6 16 -22 29 -43
35 -18 6 -219 13 -454 17 l-422 6 -6 -203z"/>
</g>
</svg>
